<svg width="114" height="38" viewBox="0 0 114 38" fill="none" xmlns="http://www.w3.org/2000/svg">
<path d="M6.17234 12.441L11.207 9.52783L16.2416 12.441L14.3526 13.4652L11.207 11.6536L7.97965 13.4652L6.17234 12.441ZM16.1642 16.06L14.3526 15.0358L11.207 16.8474L7.97965 15.0358L6.16804 16.06V18.1857L9.31792 19.9973V23.698L11.1295 24.7996L12.9411 23.698V20.0791L16.091 18.2675V16.0643H16.1642V16.06ZM16.1642 21.8864V19.7607L14.3526 20.8623V22.9062L16.1642 21.8864ZM17.5025 22.5921L14.3569 24.4037V26.5295L19.3958 23.6163V17.7941L17.5068 18.9732L17.5025 22.5921ZM15.6908 14.2527L17.5025 15.3543V17.48L19.3141 16.3784V14.2527L17.5025 13.1511L15.6908 14.2527ZM9.31792 25.1912V27.3169L11.1295 28.4185L12.9411 27.3169V25.1912L11.1295 26.2928L9.31792 25.1912ZM6.16804 21.8864L7.97965 22.9105V20.7848L6.16804 19.6832V21.8864ZM9.31792 14.2527L11.1295 15.3543L13.0186 14.2527L11.207 13.1511L9.31792 14.2527ZM4.83407 15.3543L6.72314 14.2527L4.83407 13.1511L3.02246 14.2527V16.3784L4.83407 17.48V15.3543ZM4.83407 18.9732L3.02246 17.8716V23.6937L8.06141 26.6069V24.4812L4.91153 22.6696V18.9689L4.83407 18.9732Z" fill="white"/>
<path d="M33.8715 21.413C33.8715 19.9973 33.084 19.2873 31.9049 18.8139C32.6924 18.4224 33.3207 17.7123 33.3207 16.5333C33.3207 14.8809 31.9824 13.7793 29.8567 13.7793H24.9769V24.3262H30.0116C32.2965 24.2445 33.8715 23.3021 33.8715 21.413ZM30.9583 16.9249C30.9583 17.7123 30.33 18.0265 29.3059 18.0265H27.1801V15.7458H29.4608C30.4892 15.7458 30.9583 16.1417 30.9583 16.9249ZM31.5908 21.0989C31.5908 21.8864 30.9626 22.278 29.9384 22.278H27.1844V19.9973H29.861C31.04 19.9155 31.5908 20.3889 31.5908 21.0989Z" fill="white"/>
<path d="M45.2834 13.7793H42.9984V20.234L38.0413 13.7793H35.9198V24.3263H38.2005V17.6349L43.3169 24.3263H45.2834V13.7793Z" fill="white"/>
<path d="M56.8502 21.413C56.8502 19.9973 56.0627 19.2873 54.8837 18.8139C55.6712 18.4224 56.2994 17.7123 56.2994 16.5333C56.2994 14.8809 54.9612 13.7793 52.8354 13.7793H47.9557V24.3262H52.9903C55.2753 24.2445 56.8502 23.3021 56.8502 21.413ZM54.0188 16.9249C54.0188 17.7123 53.3905 18.0265 52.3664 18.0265H50.2406V15.7458H52.5213C53.468 15.7458 54.0188 16.1417 54.0188 16.9249ZM54.5696 21.0989C54.5696 21.8864 53.9413 22.278 52.9172 22.278H50.1632V19.9973H52.8397C54.0188 19.9155 54.5696 20.3889 54.5696 21.0989Z" fill="white"/>
<path d="M70.7794 22.4373L69.6004 21.2582C68.7354 22.1231 67.8705 22.5965 66.6097 22.5965C64.5614 22.5965 63.1457 20.9441 63.1457 18.8183C63.1457 16.7701 64.6432 15.122 66.6097 15.122C67.7887 15.122 68.7354 15.6728 69.5229 16.4602L70.702 15.0445C69.6778 14.1021 68.4988 13.3921 66.6097 13.3921C63.4598 13.3921 61.1792 15.832 61.1792 18.8226C61.1792 21.8908 63.4598 24.2532 66.5322 24.2532C68.4988 24.2446 69.6778 23.5389 70.7794 22.4373Z" fill="white"/>
<path d="M79.7514 19.6832V24.0896H81.563V13.5426H79.7514V17.949H74.7167V13.5426H72.9051V24.0896H74.7167V19.6832H79.7514Z" fill="white"/>
<path d="M89.9022 13.5427H88.1724L83.5293 24.1671H85.4184L86.52 21.6498H91.4772L92.5788 24.1671H94.5453L89.9022 13.5427ZM90.8489 19.9156H87.23L89.0416 15.7459L90.8489 19.9156Z" fill="white"/>
<path d="M96.5938 13.5426V24.0896H98.4011V13.5426H96.5938Z" fill="white"/>
<path d="M108.712 20.8623L103.044 13.6201H101.392V24.1671H103.204V16.6108L109.026 24.0896H110.601V13.5427H108.789V20.8623H108.712Z" fill="white"/>
</svg>
