<svg width="114" height="38" viewBox="0 0 114 38" fill="none" xmlns="http://www.w3.org/2000/svg">
<path d="M61.458 14.5366C61.5726 14.5351 61.6856 14.5563 61.7913 14.5988C61.8977 14.6413 61.9939 14.7042 62.0748 14.7841C62.1562 14.8639 62.2203 14.9588 62.2649 15.0636C62.3089 15.1683 62.3315 15.2807 62.3315 15.3943C62.3315 15.6203 62.2411 15.8372 62.0801 15.997C61.9191 16.1569 61.701 16.2468 61.474 16.2468C61.2464 16.2468 61.0283 16.1569 60.8679 15.997C60.7069 15.8372 60.6166 15.6203 60.6166 15.3943C60.6166 15.1703 60.7045 14.9553 60.862 14.795C61.0188 14.6348 61.2333 14.542 61.458 14.5366Z" fill="white"/>
<path d="M60.815 22.8535V17.3279H62.117V22.8275L60.815 22.8535Z" fill="white"/>
<path d="M49.5653 22.8275H48.2479V14.6509H49.5653V17.8581C49.6776 17.7258 49.8071 17.6094 49.9497 17.5116C50.0501 17.4426 50.1571 17.3829 50.2694 17.3334C50.3787 17.2851 50.4922 17.2471 50.6081 17.2195C50.6491 17.2097 50.6907 17.2012 50.7323 17.194C50.7769 17.1864 50.8214 17.1803 50.8666 17.1757C50.9551 17.1667 51.0443 17.1637 51.1334 17.1668C52.4983 17.1668 53.1567 18.1388 53.1567 19.35V22.8275H51.8762V19.5735C51.8999 19.4152 51.8881 19.2536 51.8405 19.1006L51.8132 19.024C51.8013 18.9935 51.7882 18.9636 51.7734 18.9344C51.7282 18.8456 51.6706 18.7632 51.6016 18.6899C51.5559 18.6407 51.5054 18.596 51.4513 18.5565C51.4139 18.5289 51.3746 18.5038 51.3336 18.4814C51.2932 18.4592 51.251 18.4395 51.2077 18.4226C51.1726 18.4089 51.137 18.3971 51.1007 18.3873C51.0538 18.3744 51.0062 18.3647 50.9581 18.3584C50.885 18.3486 50.8107 18.3464 50.7365 18.352C50.6919 18.352 50.6473 18.3546 50.6034 18.3598C50.4899 18.373 50.3781 18.403 50.2736 18.4489C50.128 18.5129 49.9967 18.6061 49.8891 18.723C49.8362 18.7804 49.7893 18.8429 49.7495 18.9095C49.7085 18.9783 49.6746 19.0513 49.6484 19.1275C49.6241 19.1978 49.6068 19.27 49.5973 19.3432C49.5926 19.3776 49.5896 19.4122 49.5884 19.447C49.586 19.496 49.5872 19.5452 49.5914 19.5943L49.5653 22.8275Z" fill="white"/>
<path d="M39.3762 18.8302C39.3566 18.2898 39.4469 17.751 39.6418 17.2461C39.8367 16.7412 40.1326 16.2808 40.5105 15.8924C40.8891 15.504 41.3424 15.1956 41.844 14.9859C42.3455 14.7761 42.8838 14.6693 43.4282 14.6717C45.477 14.6717 46.6898 15.8672 47.0559 17.2708L45.77 17.7022C45.6565 17.1789 45.3576 16.7137 44.9274 16.392C44.4972 16.0702 43.9647 15.9135 43.4282 15.9504C42.1001 15.9504 40.772 16.912 40.772 18.8561C40.772 20.8002 42.0686 21.7255 43.4436 21.7255C43.9837 21.7411 44.5132 21.5759 44.9476 21.2563C45.3814 20.9367 45.6951 20.4814 45.8377 19.9634L47.0874 20.3688C46.8734 21.1597 46.3939 21.854 45.7278 22.3363C45.0623 22.8186 44.2506 23.0598 43.4282 23.0198C42.8791 23.03 42.3342 22.9274 41.8273 22.7183C41.7429 22.6835 41.6598 22.6459 41.5783 22.6056C41.4482 22.5411 41.3216 22.4696 41.1992 22.3914C41.1273 22.3454 41.0566 22.297 40.9877 22.2464C40.8997 22.1822 40.8148 22.1143 40.7328 22.043C40.6734 21.9915 40.6157 21.9381 40.5593 21.8829L40.482 21.805C40.1011 21.4116 39.807 20.9443 39.6168 20.4323C39.4261 19.9204 39.3447 19.375 39.3762 18.8302Z" fill="white"/>
<path fill-rule="evenodd" clip-rule="evenodd" d="M57.5165 19.4592L56.0999 19.6775C55.1539 19.8126 54.4272 20.3532 54.4272 21.3565C54.4355 21.5897 54.4913 21.8187 54.5912 22.0299C54.6916 22.241 54.8336 22.4297 55.0089 22.5848C55.1842 22.7397 55.3892 22.8578 55.612 22.9316C55.8349 23.0055 56.0702 23.0338 56.3037 23.0146C56.6394 23.03 56.9734 22.9579 57.2723 22.8057C57.5712 22.6535 57.8249 22.4262 58.0079 22.1466C58.0008 22.3816 58.018 22.6169 58.0602 22.8483H59.2891C59.2409 22.5563 59.2178 22.2606 59.2207 21.9646V19.2356C59.2207 18.118 58.573 17.1564 56.8682 17.1564C55.5092 17.1564 54.6417 18.0037 54.5424 18.9549L55.7445 19.2252C55.7499 19.0845 55.7838 18.9462 55.8438 18.8188C55.8705 18.763 55.902 18.7097 55.9383 18.6597C55.984 18.5956 56.0369 18.5368 56.0963 18.4844C56.2027 18.391 56.3269 18.3201 56.4612 18.2759C56.5093 18.2601 56.5586 18.2478 56.6085 18.2391C56.6977 18.2235 56.7886 18.2194 56.8789 18.2272C57.611 18.2272 57.9247 18.6014 57.9247 19.0641C57.9247 19.2564 57.8356 19.4176 57.5165 19.4592ZM57.9247 20.3116V20.5611C57.9515 20.7495 57.9354 20.9415 57.8766 21.1227C57.8184 21.3038 57.7191 21.4693 57.5866 21.6066C57.5284 21.6672 57.4642 21.7215 57.3953 21.769C57.3073 21.8292 57.2123 21.8783 57.1118 21.915C56.9324 21.9807 56.7399 22.0048 56.5497 21.9854C56.4487 21.9955 56.3471 21.9847 56.2508 21.9536C56.2092 21.9402 56.1688 21.9231 56.1302 21.9025C56.0797 21.8756 56.0327 21.8429 55.99 21.805C55.9537 21.7729 55.921 21.7373 55.8919 21.6989C55.8604 21.6573 55.8331 21.6123 55.8111 21.5647C55.7689 21.4732 55.7463 21.374 55.7445 21.2733C55.7469 21.0782 55.8254 20.8916 55.9626 20.7523C56.0999 20.6129 56.2859 20.5314 56.482 20.5247L57.9247 20.3116Z" fill="white"/>
<path d="M63.8212 22.8275H65.1386V19.6515C65.1314 19.591 65.1291 19.5302 65.1308 19.4696C65.1344 19.3676 65.1516 19.2664 65.1819 19.1684C65.2307 19.0122 65.3121 18.868 65.4208 18.7453C65.4773 18.6815 65.5403 18.6243 65.6086 18.5746C65.6722 18.5285 65.7405 18.4889 65.8124 18.4563C65.9621 18.3885 66.1244 18.3529 66.289 18.3519C67.1149 18.3519 67.4233 18.8978 67.4233 19.5735V22.8275H68.7407V19.35C68.7407 18.1388 68.0924 17.1668 66.7435 17.1668C66.4149 17.156 66.0899 17.2333 65.8023 17.3907C65.5141 17.548 65.274 17.7795 65.1071 18.0608V17.3279H63.8212V22.8275Z" fill="white"/>
<path d="M70.3457 22.8275V14.6509H71.6631V22.8275H70.3457Z" fill="white"/>
<path d="M74.6253 14.7878C74.4636 14.6269 74.2444 14.5365 74.0156 14.5365C73.8463 14.5376 73.6817 14.5883 73.5414 14.6824C73.4339 14.7544 73.3447 14.8494 73.28 14.9598C73.2604 14.9935 73.2425 15.0287 73.2277 15.0652C73.1861 15.1662 73.1647 15.2738 73.1635 15.3819C73.1629 15.4403 73.1682 15.4988 73.1801 15.5566C73.2134 15.7215 73.2948 15.8729 73.4148 15.9918C73.5343 16.1107 73.6864 16.1918 73.8522 16.2249C73.933 16.241 74.015 16.2453 74.0964 16.2381C74.182 16.2306 74.2664 16.2103 74.3466 16.1776C74.4339 16.1419 74.5142 16.0922 74.5849 16.031C74.6407 15.9828 74.69 15.9273 74.7316 15.8659C74.8261 15.7265 74.8772 15.5624 74.8784 15.3942C74.8784 15.1667 74.7875 14.9486 74.6253 14.7878Z" fill="white"/>
<path d="M73.3673 17.3279V22.8535L74.674 22.8275V17.3279H73.3673Z" fill="white"/>
<path d="M77.6962 22.8275H76.3788V17.3279H77.66V18.0608C77.695 18.0016 77.7336 17.9445 77.7752 17.8899C77.9309 17.686 78.1282 17.5162 78.3552 17.3921C78.6428 17.2349 78.9678 17.1571 79.2958 17.1667C80.6495 17.1667 81.2978 18.1388 81.2978 19.35V22.8275H79.9804V19.5735C80.0047 19.4152 79.9929 19.2535 79.9453 19.1005C79.8978 18.9476 79.8164 18.8072 79.7064 18.6898C79.5971 18.5725 79.4628 18.4812 79.3125 18.4226C79.1627 18.3642 79.0011 18.3399 78.8407 18.3519C78.745 18.3525 78.6499 18.3649 78.5572 18.3886C78.4913 18.4055 78.4271 18.4281 78.3653 18.4562C78.2857 18.4924 78.2108 18.5372 78.1413 18.5898C78.0807 18.636 78.0248 18.6881 77.9743 18.7455C77.9262 18.8004 77.8834 18.8596 77.8459 18.9222C77.8002 18.9997 77.7639 19.0824 77.7378 19.1688C77.7253 19.2101 77.7152 19.2521 77.7069 19.2944C77.6849 19.4119 77.6808 19.5324 77.6962 19.6515V22.8275Z" fill="white"/>
<path d="M88.1253 22.8275L85.8043 19.6515L88.0784 17.3279H86.3272L84.2047 19.5527V14.6509H82.8974V22.8327H84.2047V21.2733L84.8839 20.5611L86.5097 22.8275H88.1253Z" fill="white"/>
<path d="M23.7659 12.4417L29.4642 15.6957V22.2297L23.7816 25.5045L18.0833 22.2557V15.7217L23.7659 12.4417ZM23.7659 7.63867L13.8906 13.3306V24.6624L23.7711 30.3075L31.5449 25.8216L33.636 24.6208V13.2838L23.7555 7.63867H23.7659Z" fill="white"/>
</svg>
