<svg width="133" height="45" viewBox="0 0 133 45" fill="none" xmlns="http://www.w3.org/2000/svg">
<path d="M61.3333 23.6777V28.0967C61.3307 28.1873 61.2935 28.2735 61.2294 28.3376C61.1653 28.4017 61.0792 28.4389 60.9886 28.4415C60.9429 28.4428 60.8975 28.4348 60.8551 28.4179C60.8127 28.401 60.7742 28.3757 60.7419 28.3434C60.7096 28.3111 60.6843 28.2726 60.6674 28.2302C60.6505 28.1878 60.6425 28.1424 60.6438 28.0967V23.6777C60.6438 22.1838 59.7976 20.7003 58.1366 20.7003C56.0054 20.7003 55.0861 22.5599 55.2114 24.4717C55.2114 24.501 55.218 24.5832 55.2238 24.6551C55.2283 24.7109 55.2323 24.761 55.2323 24.7746V28.0863C55.2321 28.1746 55.2005 28.2599 55.143 28.3269C55.0856 28.3939 55.0061 28.4383 54.9189 28.4519C54.8702 28.4584 54.8206 28.4543 54.7736 28.4398C54.7266 28.4254 54.6833 28.401 54.6466 28.3682C54.6099 28.3355 54.5807 28.2952 54.561 28.2502C54.5413 28.2051 54.5315 28.1564 54.5324 28.1072V13.5756C54.5332 13.4844 54.5698 13.3972 54.6343 13.3327C54.6987 13.2682 54.7859 13.2316 54.8771 13.2308C54.9677 13.2335 55.0539 13.2706 55.118 13.3347C55.1821 13.3988 55.2192 13.485 55.2219 13.5756V21.7868C55.8173 20.7212 56.8829 20.0004 58.1261 20.0004C60.1737 20.0004 61.3333 21.7868 61.3333 23.6777Z" fill="white"/>
<path d="M50.2393 20.2506C50.1752 20.1865 50.089 20.1493 49.9984 20.1467H48.1493V17.4618C48.1502 17.4127 48.1404 17.3639 48.1207 17.3188C48.101 17.2738 48.0718 17.2335 48.0351 17.2008C47.9984 17.1681 47.9551 17.1436 47.9081 17.1292C47.8611 17.1148 47.8115 17.1106 47.7628 17.1171C47.6755 17.1308 47.5961 17.1751 47.5386 17.2421C47.4812 17.3092 47.4495 17.3945 47.4494 17.4827V20.1467H45.6629C45.5718 20.1475 45.4845 20.1841 45.4201 20.2486C45.3556 20.3131 45.319 20.4003 45.3182 20.4914C45.3169 20.5371 45.3249 20.5825 45.3418 20.6249C45.3587 20.6673 45.384 20.7058 45.4163 20.7381C45.4485 20.7704 45.4871 20.7957 45.5295 20.8126C45.5719 20.8295 45.6173 20.8375 45.6629 20.8362H47.4494V28.1386C47.452 28.2292 47.4891 28.3153 47.5532 28.3794C47.6173 28.4435 47.7035 28.4807 47.7941 28.4833C47.8853 28.4825 47.9725 28.4459 48.037 28.3814C48.1014 28.317 48.138 28.2297 48.1388 28.1386V20.8362H49.9984C50.044 20.8375 50.0894 20.8295 50.1318 20.8126C50.1743 20.7957 50.2128 20.7704 50.2451 20.7381C50.2773 20.7058 50.3027 20.6673 50.3195 20.6249C50.3364 20.5825 50.3444 20.5371 50.3431 20.4914C50.3405 20.4008 50.3033 20.3147 50.2393 20.2506Z" fill="white"/>
<path fill-rule="evenodd" clip-rule="evenodd" d="M41.4656 24.5336C41.536 24.4651 41.5765 24.3715 41.5782 24.2732C41.5677 22.048 39.8962 19.9796 37.5561 19.9796C35.216 19.9796 33.555 22.0689 33.555 24.2941C33.555 26.5193 35.2265 28.6087 37.5561 28.6087C38.9142 28.6087 40.3037 28.0132 41.0036 26.8014C41.0379 26.7485 41.0561 26.6868 41.0558 26.6238C41.0571 26.5781 41.0491 26.5327 41.0322 26.4903C41.0154 26.4479 40.99 26.4094 40.9577 26.3771C40.9255 26.3448 40.8869 26.3195 40.8445 26.3026C40.8021 26.2858 40.7567 26.2777 40.7111 26.279C40.6499 26.2816 40.5903 26.2991 40.5375 26.3301C40.4846 26.361 40.4402 26.4045 40.4081 26.4566C39.7186 27.4491 38.7993 27.9192 37.5561 27.9192C35.7384 27.9192 34.4534 26.3521 34.2758 24.6389H41.2021C41.3004 24.64 41.3951 24.6021 41.4656 24.5336ZM37.5561 20.669C39.3739 20.669 40.6902 22.2361 40.8364 23.9494H34.2758C34.4534 22.2361 35.7384 20.669 37.5561 20.669Z" fill="white"/>
<path fill-rule="evenodd" clip-rule="evenodd" d="M73.6629 24.5336C73.7334 24.4651 73.7738 24.3715 73.7755 24.2732C73.7651 22.048 72.0727 19.9796 69.7534 19.9796C67.4133 19.9796 65.7523 22.0689 65.7523 24.2941C65.7523 26.5193 67.4238 28.6087 69.7534 28.6087C71.1115 28.6087 72.501 28.0132 73.2009 26.8014C73.2352 26.7485 73.2534 26.6868 73.2532 26.6238C73.2545 26.5781 73.2464 26.5327 73.2296 26.4903C73.2127 26.4479 73.1873 26.4094 73.1551 26.3771C73.1228 26.3448 73.0843 26.3195 73.0419 26.3026C72.9994 26.2858 72.954 26.2777 72.9084 26.279C72.8472 26.2816 72.7876 26.2991 72.7348 26.3301C72.682 26.361 72.6375 26.4045 72.6054 26.4566C71.916 27.4491 70.9966 27.9192 69.7534 27.9192C67.9357 27.9192 66.6507 26.3521 66.4731 24.6389H73.3994C73.4977 24.64 73.5924 24.6021 73.6629 24.5336ZM69.743 20.669C71.5608 20.669 72.8771 22.2361 73.0233 23.9494H66.4627C66.6403 22.2361 67.9252 20.669 69.743 20.669Z" fill="white"/>
<path d="M82.2897 20.4705C82.2964 20.5633 82.266 20.6549 82.2054 20.7253C82.1447 20.7958 82.0586 20.8394 81.9659 20.8466C79.9287 21.1496 79.0094 22.8106 79.0094 24.7433V28.055C79.0092 28.1432 78.9776 28.2285 78.9201 28.2956C78.8627 28.3626 78.7832 28.4069 78.696 28.4206C78.6473 28.4271 78.5977 28.423 78.5507 28.4085C78.5037 28.3941 78.4604 28.3696 78.4237 28.3369C78.387 28.3042 78.3577 28.2639 78.3381 28.2189C78.3183 28.1738 78.3086 28.125 78.3095 28.0759V20.5228C78.3096 20.4345 78.3413 20.3492 78.3988 20.2821C78.4562 20.2151 78.5357 20.1708 78.6229 20.1571C78.6716 20.1506 78.7212 20.1548 78.7682 20.1692C78.8152 20.1837 78.8585 20.2081 78.8952 20.2408C78.9319 20.2735 78.9611 20.3138 78.9809 20.3589C79.0005 20.4039 79.0103 20.4527 79.0094 20.5019V22.0376C79.584 21.066 80.7227 20.1467 81.9137 20.1467C82.0912 20.1467 82.2897 20.272 82.2897 20.4705Z" fill="white"/>
<path fill-rule="evenodd" clip-rule="evenodd" d="M93.5642 24.5336C93.6347 24.4651 93.6752 24.3715 93.6768 24.2732C93.6664 22.048 91.9949 19.9796 89.6548 19.9796C87.3147 19.9796 85.6536 22.0689 85.6536 24.2941C85.6536 26.5193 87.3251 28.6087 89.6548 28.6087C91.0129 28.6087 92.4023 28.0132 93.1022 26.8014C93.1366 26.7485 93.1547 26.6868 93.1545 26.6238C93.1558 26.5781 93.1478 26.5327 93.1309 26.4903C93.114 26.4479 93.0887 26.4094 93.0564 26.3771C93.0241 26.3448 92.9856 26.3195 92.9432 26.3026C92.9008 26.2858 92.8554 26.2777 92.8097 26.279C92.7486 26.2816 92.6889 26.2991 92.6361 26.3301C92.5833 26.361 92.5389 26.4045 92.5068 26.4566C91.8173 27.4491 90.898 27.9192 89.6548 27.9192C87.837 27.9192 86.552 26.3521 86.3745 24.6389H93.3007C93.399 24.64 93.4937 24.6021 93.5642 24.5336ZM89.6548 20.669C91.4725 20.669 92.7888 22.2361 92.9351 23.9494H86.3745C86.552 22.2361 87.837 20.669 89.6548 20.669Z" fill="white"/>
<path d="M104.876 20.5541V28.1385C104.873 28.2291 104.836 28.3153 104.772 28.3794C104.708 28.4435 104.622 28.4806 104.531 28.4833C104.486 28.4846 104.44 28.4765 104.398 28.4597C104.355 28.4428 104.317 28.4175 104.285 28.3852C104.252 28.3529 104.227 28.3144 104.21 28.272C104.193 28.2296 104.185 28.1842 104.186 28.1385V26.6969C103.612 27.8356 102.598 28.6609 101.303 28.6609C99.245 28.6609 98.1063 26.8745 98.1063 24.9836V20.5436C98.1071 20.4525 98.1437 20.3653 98.2082 20.3008C98.2727 20.2363 98.3599 20.1997 98.4511 20.1989C98.5417 20.2015 98.6279 20.2387 98.6919 20.3028C98.756 20.3669 98.7932 20.453 98.7958 20.5436V24.9836C98.7958 26.4775 99.642 27.9609 101.303 27.9609C103.633 27.9609 104.186 25.7775 104.186 23.3643V20.5332C104.187 20.4773 104.201 20.4224 104.228 20.3731C104.254 20.3238 104.292 20.2815 104.338 20.2498C104.384 20.2181 104.437 20.1979 104.492 20.1909C104.548 20.1838 104.604 20.1902 104.657 20.2093C104.722 20.2399 104.778 20.2885 104.817 20.3496C104.856 20.4107 104.876 20.4817 104.876 20.5541Z" fill="white"/>
<path d="M122.416 28.0863V23.6464C122.416 21.7659 121.257 20.0004 119.22 20.0004C117.788 20.0004 116.67 20.9093 116.096 22.2047C115.647 20.8988 114.55 20.0004 113.139 20.0004C111.896 20.0004 110.831 20.7003 110.235 21.7659V20.5019C110.236 20.4527 110.226 20.4039 110.207 20.3589C110.187 20.3138 110.158 20.2735 110.121 20.2408C110.084 20.2081 110.041 20.1836 109.994 20.1692C109.947 20.1548 109.897 20.1506 109.849 20.1571C109.761 20.1708 109.682 20.2151 109.625 20.2821C109.567 20.3492 109.535 20.4345 109.535 20.5227V28.0967C109.534 28.1459 109.544 28.1947 109.564 28.2397C109.584 28.2848 109.613 28.3251 109.649 28.3578C109.686 28.3905 109.729 28.4149 109.776 28.4294C109.823 28.4438 109.873 28.448 109.922 28.4415C110.009 28.4278 110.088 28.3835 110.146 28.3165C110.203 28.2494 110.235 28.1641 110.235 28.0758V24.7433C110.249 24.722 110.244 24.6716 110.24 24.6252C110.237 24.6034 110.235 24.5824 110.235 24.5657C110.162 22.351 111.029 20.6899 113.139 20.6899C114.8 20.6899 115.647 22.1525 115.647 23.6464V28.0863C115.645 28.1319 115.653 28.1773 115.67 28.2197C115.687 28.2622 115.712 28.3007 115.745 28.333C115.777 28.3652 115.816 28.3906 115.858 28.4074C115.9 28.4243 115.946 28.4323 115.991 28.431C116.082 28.4284 116.168 28.3912 116.232 28.3272C116.296 28.2631 116.334 28.1769 116.336 28.0863V24.6597C116.336 22.9255 117.13 20.6899 119.22 20.6899C120.881 20.6899 121.727 22.1525 121.727 23.6464V28.0863C121.725 28.1319 121.733 28.1773 121.75 28.2197C121.767 28.2622 121.793 28.3007 121.825 28.333C121.857 28.3652 121.896 28.3906 121.938 28.4074C121.98 28.4243 122.026 28.4323 122.071 28.431C122.162 28.4284 122.248 28.3912 122.312 28.3272C122.376 28.2631 122.414 28.1769 122.416 28.0863Z" fill="white"/>
<path d="M18.3856 27.4013C18.3011 27.4301 18.2529 27.3566 18.1955 27.3228C15.3793 25.6606 12.5661 23.9974 9.75612 22.333C9.72891 22.3193 9.70066 22.3077 9.67163 22.2984V22.2612L9.72148 22.2325C9.79226 22.2139 9.86193 22.1913 9.93016 22.1649L16.5666 19.1453C17.158 18.8758 17.7494 18.6105 18.3408 18.3436H18.383C18.383 18.428 18.383 18.5032 18.383 18.5835C18.3853 21.5231 18.3861 24.4623 18.3856 27.4013Z" fill="white"/>
<path d="M18.3898 18.3456H18.3475C18.3475 18.2611 18.356 18.1766 18.356 18.0879C18.356 14.7862 18.356 11.4842 18.356 8.1819C18.3463 8.09708 18.352 8.01121 18.3729 7.92844H18.3906C18.7378 8.44127 19.0403 8.98198 19.3597 9.51171C21.8898 13.7084 24.4184 17.9046 26.9457 22.1002C26.9702 22.1416 26.9896 22.1847 27.0116 22.2303C26.94 22.215 26.8697 22.1944 26.8012 22.1686C26.3374 21.9591 25.8719 21.7462 25.4123 21.5324C24.6925 21.2029 23.9723 20.874 23.252 20.5456L19.7813 18.9733C19.3191 18.7604 18.8544 18.5534 18.3898 18.3456Z" fill="white"/>
<path d="M18.3757 7.92407C18.3548 8.00684 18.349 8.09272 18.3588 8.17753C18.3588 11.4793 18.3588 14.7813 18.3588 18.0836C18.3588 18.168 18.3537 18.2525 18.3503 18.3412C17.7589 18.6082 17.1675 18.8735 16.5761 19.143L9.93968 22.1626C9.87144 22.189 9.80177 22.2116 9.73099 22.2301C9.92278 21.8314 10.172 21.4698 10.3993 21.0879C13.0324 16.7109 15.6676 12.3348 18.3047 7.95956C18.3221 7.93532 18.341 7.91218 18.3613 7.89028L18.3757 7.92407Z" fill="white"/>
<path d="M18.3898 18.3456C18.8544 18.5534 19.3193 18.7605 19.7831 18.97L23.2538 20.5423C23.9747 20.8701 24.6949 21.1991 25.4141 21.5291C25.8771 21.7412 26.3435 21.9558 26.8031 22.1653C26.8716 22.1911 26.9419 22.2117 27.0134 22.227C27.0979 22.3326 26.9729 22.3368 26.9349 22.3596C26.2142 22.7905 25.4902 23.2155 24.7678 23.643C22.6945 24.8697 20.6218 26.0962 18.5496 27.3224C18.4972 27.3528 18.4405 27.3751 18.3856 27.4013C18.3856 24.4629 18.3857 21.5246 18.3857 18.5856C18.3865 18.5054 18.3889 18.4259 18.3898 18.3456Z" fill="white"/>
<path d="M18.3559 29.0705L23.7841 25.871C24.8205 25.2593 25.8563 24.6471 26.8916 24.0343L26.9853 23.9827C26.9946 24.0672 26.9363 24.112 26.9009 24.161C24.5352 27.496 22.1696 30.8298 19.804 34.1625C19.3562 34.7945 18.9093 35.4298 18.4573 36.0567C18.4336 36.0896 18.3973 36.2443 18.3246 36.0803C18.3821 36.0313 18.3567 35.9654 18.3567 35.9114C18.3573 33.6302 18.357 31.35 18.3559 29.0705Z" fill="white"/>
<path d="M18.3554 29.0709C18.3554 31.3504 18.3554 33.6293 18.3554 35.9076C18.3554 35.9659 18.3808 36.0318 18.3233 36.0765C18.2025 36.0039 18.1501 35.8738 18.0699 35.7665C15.3269 31.9026 12.5853 28.0382 9.84509 24.1733C9.81045 24.1243 9.77835 24.0719 9.74286 24.0178C9.81383 23.9764 9.85185 24.033 9.89325 24.0575C12.6672 25.6954 15.4406 27.3347 18.2135 28.9755C18.265 29.0076 18.3089 29.0405 18.3554 29.0709Z" fill="white"/>
<path d="M18.3763 7.92402L18.356 7.89276C18.3932 7.86911 18.3881 7.90375 18.394 7.92149L18.3763 7.92402Z" fill="white"/>
</svg>
