<svg width="32" height="32" viewBox="0 0 32 32" fill="none" xmlns="http://www.w3.org/2000/svg">
<g clip-path="url(#clip0_93_2080)">
<path d="M15.8861 0.444336C11.7191 0.444336 11.1962 0.462556 9.55955 0.537036C7.92612 0.611834 6.81117 0.870433 5.83559 1.24986C4.82645 1.64176 3.97042 2.16599 3.11759 3.01914C2.26411 3.87197 1.73988 4.728 1.34671 5.73683C0.966322 6.71273 0.707404 7.828 0.633883 9.46078C0.560683 11.0974 0.541504 11.6207 0.541504 15.7877C0.541504 19.9547 0.560044 20.476 0.634203 22.1126C0.709322 23.7461 0.967921 24.861 1.34703 25.8366C1.73924 26.8457 2.26347 27.7018 3.11663 28.5546C3.96914 29.4081 4.82517 29.9336 5.83367 30.3255C6.80989 30.7049 7.92516 30.9635 9.55827 31.0383C11.1949 31.1128 11.7175 31.131 15.8842 31.131C20.0515 31.131 20.5729 31.1128 22.2095 31.0383C23.8429 30.9635 24.9591 30.7049 25.9354 30.3255C26.9442 29.9336 27.7989 29.4081 28.6514 28.5546C29.5049 27.7018 30.0291 26.8457 30.4223 25.8369C30.7995 24.861 31.0584 23.7458 31.1351 22.113C31.2087 20.4763 31.2278 19.9547 31.2278 15.7877C31.2278 11.6207 31.2087 11.0977 31.1351 9.4611C31.0584 7.82768 30.7995 6.71273 30.4223 5.73715C30.0291 4.728 29.5049 3.87197 28.6514 3.01914C27.798 2.16567 26.9445 1.64144 25.9344 1.24986C24.9563 0.870433 23.8407 0.611834 22.2072 0.537036C20.5706 0.462556 20.0496 0.444336 15.8813 0.444336H15.8861ZM14.5097 3.20933C14.9182 3.20869 15.374 3.20933 15.8861 3.20933C19.9828 3.20933 20.4683 3.22404 22.0861 3.29756C23.5821 3.36596 24.394 3.61593 24.9348 3.82594C25.6509 4.10404 26.1614 4.43648 26.698 4.9735C27.2351 5.51051 27.5675 6.02196 27.8462 6.73798C28.0563 7.27819 28.3065 8.09011 28.3746 9.58609C28.4481 11.2035 28.4641 11.6894 28.4641 15.7842C28.4641 19.8789 28.4481 20.3648 28.3746 21.9822C28.3062 23.4782 28.0563 24.2901 27.8462 24.8303C27.5681 25.5464 27.2351 26.0562 26.698 26.5929C26.161 27.1299 25.6512 27.4624 24.9348 27.7405C24.3946 27.9514 23.5821 28.2008 22.0861 28.2692C20.4687 28.3427 19.9828 28.3587 15.8861 28.3587C11.7891 28.3587 11.3036 28.3427 9.68613 28.2692C8.19016 28.2001 7.37824 27.9501 6.83706 27.7401C6.12104 27.462 5.6096 27.1296 5.07258 26.5926C4.53556 26.0556 4.20313 25.5454 3.92439 24.8291C3.71438 24.2888 3.46409 23.4769 3.396 21.9809C3.32248 20.3635 3.30778 19.8776 3.30778 15.7803C3.30778 11.683 3.32248 11.1997 3.396 9.58225C3.46441 8.08628 3.71438 7.27436 3.92439 6.73351C4.20249 6.01748 4.53556 5.50604 5.07258 4.96902C5.6096 4.43201 6.12104 4.09957 6.83706 3.82083C7.37792 3.60986 8.19016 3.36053 9.68613 3.2918C11.1016 3.22787 11.6501 3.20869 14.5097 3.2055V3.20933ZM24.0763 5.75697C23.0598 5.75697 22.2351 6.58071 22.2351 7.59753C22.2351 8.61402 23.0598 9.43873 24.0763 9.43873C25.0928 9.43873 25.9175 8.61402 25.9175 7.59753C25.9175 6.58103 25.0928 5.75633 24.0763 5.75633V5.75697ZM15.8861 7.90823C11.5347 7.90823 8.00667 11.4362 8.00667 15.7877C8.00667 20.1391 11.5347 23.6655 15.8861 23.6655C20.2375 23.6655 23.7643 20.1391 23.7643 15.7877C23.7643 11.4362 20.2375 7.90823 15.8861 7.90823ZM15.8861 10.6732C18.7106 10.6732 21.0006 12.9629 21.0006 15.7877C21.0006 18.6121 18.7106 20.9021 15.8861 20.9021C13.0613 20.9021 10.7717 18.6121 10.7717 15.7877C10.7717 12.9629 13.0613 10.6732 15.8861 10.6732Z" fill="white"/>
</g>
<defs>
<clipPath id="clip0_93_2080">
<rect width="30.6873" height="30.6863" fill="white" transform="translate(0.541748 0.444336)"/>
</clipPath>
</defs>
</svg>
