<svg width="52" height="51" viewBox="0 0 52 51" fill="none" xmlns="http://www.w3.org/2000/svg">
<circle cx="25.9552" cy="25.5443" r="25.0843" fill="white" fill-opacity="0.1"/>
<path d="M36.5604 28.981C36.5604 32.9271 33.3688 36.1188 29.4226 36.1188L30.4933 34.3343" stroke="#FF8811" stroke-width="1.83544" stroke-linecap="round" stroke-linejoin="round"/>
<path d="M14.1272 20.8234C14.1272 16.8772 17.3188 13.6855 21.265 13.6855L20.1943 15.47" stroke="#FF8811" stroke-width="1.83544" stroke-linecap="round" stroke-linejoin="round"/>
<path d="M19.8572 26.0234H22.7225C23.3547 26.0234 23.8747 26.5945 23.8747 27.1757C23.8747 27.8079 23.3649 28.3279 22.7225 28.3279H19.8572V26.0234Z" stroke="#FF8811" stroke-width="0.734175" stroke-miterlimit="10" stroke-linecap="round" stroke-linejoin="round"/>
<path d="M19.8572 28.3281H23.1406C23.8646 28.3281 24.456 28.838 24.456 29.4804C24.456 30.1126 23.8646 30.6326 23.1406 30.6326H19.8572V28.3281Z" stroke="#FF8811" stroke-width="0.734175" stroke-miterlimit="10" stroke-linecap="round" stroke-linejoin="round"/>
<path d="M21.6926 30.6226V31.7646" stroke="#FF8811" stroke-width="0.734175" stroke-miterlimit="10" stroke-linecap="round" stroke-linejoin="round"/>
<path d="M21.6926 24.8818V26.0239" stroke="#FF8811" stroke-width="0.734175" stroke-miterlimit="10" stroke-linecap="round" stroke-linejoin="round"/>
<path d="M28.2492 28.3281C28.2492 31.8053 25.4349 34.6196 21.9577 34.6196C18.4806 34.6196 15.6663 31.8053 15.6663 28.3281C15.6663 24.851 18.4806 22.0366 21.9577 22.0366C22.1209 22.0366 22.2738 22.0468 22.4472 22.057C25.5368 22.2916 28.0045 24.7592 28.239 27.8489C28.239 28.0018 28.2492 28.1548 28.2492 28.3281Z" stroke="#FF8811" stroke-width="1.83544" stroke-miterlimit="10" stroke-linecap="round" stroke-linejoin="round"/>
<path d="M35.0297 21.5371C35.0297 25.0142 32.2154 27.8286 28.7383 27.8286H28.2386C28.0041 24.7389 25.5364 22.2712 22.4468 22.0367V21.5371C22.4468 18.0599 25.2611 15.2456 28.7383 15.2456C32.2154 15.2456 35.0297 18.0599 35.0297 21.5371Z" stroke="#FF8811" stroke-width="1.83544" stroke-miterlimit="10" stroke-linecap="round" stroke-linejoin="round"/>
</svg>
