<svg width="97" height="98" viewBox="0 0 97 98" fill="none" xmlns="http://www.w3.org/2000/svg">
<g filter="url(#filter0_b_129_192)">
<rect x="1" y="1.5" width="95" height="95" rx="47.5" fill="white" fill-opacity="0.1"/>
<rect x="1" y="1.5" width="95" height="95" rx="47.5" stroke="white" stroke-opacity="0.12" stroke-width="2"/>
</g>
<g clip-path="url(#clip0_129_192)">
<path d="M35.25 29.5C36.9076 29.5 38.4973 30.1585 39.6694 31.3306C40.8415 32.5027 41.5 34.0924 41.5 35.75C41.5 37.4076 40.8415 38.9973 39.6694 40.1694C38.4973 41.3415 36.9076 42 35.25 42C33.5924 42 32.0027 41.3415 30.8306 40.1694C29.6585 38.9973 29 37.4076 29 35.75C29 34.0924 29.6585 32.5027 30.8306 31.3306C32.0027 30.1585 33.5924 29.5 35.25 29.5ZM64 29.5C65.6576 29.5 67.2473 30.1585 68.4194 31.3306C69.5915 32.5027 70.25 34.0924 70.25 35.75C70.25 37.4076 69.5915 38.9973 68.4194 40.1694C67.2473 41.3415 65.6576 42 64 42C62.3424 42 60.7527 41.3415 59.5806 40.1694C58.4085 38.9973 57.75 37.4076 57.75 35.75C57.75 34.0924 58.4085 32.5027 59.5806 31.3306C60.7527 30.1585 62.3424 29.5 64 29.5ZM24 52.8359C24 48.2344 27.7344 44.5 32.3359 44.5H35.6719C36.9141 44.5 38.0938 44.7734 39.1562 45.2578C39.0547 45.8203 39.0078 46.4062 39.0078 47C39.0078 49.9844 40.3203 52.6641 42.3906 54.5C42.375 54.5 42.3594 54.5 42.3359 54.5H25.6641C24.75 54.5 24 53.75 24 52.8359ZM55.6641 54.5C55.6484 54.5 55.6328 54.5 55.6094 54.5C57.6875 52.6641 58.9922 49.9844 58.9922 47C58.9922 46.4062 58.9375 45.8281 58.8438 45.2578C59.9062 44.7656 61.0859 44.5 62.3281 44.5H65.6641C70.2656 44.5 74 48.2344 74 52.8359C74 53.7578 73.25 54.5 72.3359 54.5H55.6641ZM41.5 47C41.5 45.0109 42.2902 43.1032 43.6967 41.6967C45.1032 40.2902 47.0109 39.5 49 39.5C50.9891 39.5 52.8968 40.2902 54.3033 41.6967C55.7098 43.1032 56.5 45.0109 56.5 47C56.5 48.9891 55.7098 50.8968 54.3033 52.3033C52.8968 53.7098 50.9891 54.5 49 54.5C47.0109 54.5 45.1032 53.7098 43.6967 52.3033C42.2902 50.8968 41.5 48.9891 41.5 47ZM34 67.4141C34 61.6641 38.6641 57 44.4141 57H53.5859C59.3359 57 64 61.6641 64 67.4141C64 68.5625 63.0703 69.5 61.9141 69.5H36.0859C34.9375 69.5 34 68.5703 34 67.4141Z" fill="white" fill-opacity="0.5"/>
</g>
<defs>
<filter id="filter0_b_129_192" x="-20" y="-19.5" width="137" height="137" filterUnits="userSpaceOnUse" color-interpolation-filters="sRGB">
<feFlood flood-opacity="0" result="BackgroundImageFix"/>
<feGaussianBlur in="BackgroundImageFix" stdDeviation="10"/>
<feComposite in2="SourceAlpha" operator="in" result="effect1_backgroundBlur_129_192"/>
<feBlend mode="normal" in="SourceGraphic" in2="effect1_backgroundBlur_129_192" result="shape"/>
</filter>
<clipPath id="clip0_129_192">
<rect width="50" height="40" fill="white" transform="translate(24 29.5)"/>
</clipPath>
</defs>
</svg>
