<svg width="125" height="36" viewBox="0 0 125 36" fill="none" xmlns="http://www.w3.org/2000/svg">
<path d="M21.5985 23.0359L18.4307 26.4325C18.3621 26.5063 18.2792 26.5652 18.1869 26.6055C18.0946 26.6458 17.995 26.6666 17.8943 26.6667H2.87758C2.80596 26.6667 2.7359 26.6458 2.67599 26.6065C2.61608 26.5673 2.56891 26.5114 2.54026 26.4458C2.51162 26.3801 2.50273 26.3076 2.5147 26.2369C2.52667 26.1663 2.55896 26.1007 2.60764 26.0482L5.77188 22.6515C5.84041 22.5778 5.92337 22.5189 6.01566 22.4786C6.10792 22.4383 6.20751 22.4174 6.3082 22.4173H21.325C21.3972 22.4159 21.4683 22.4358 21.5293 22.4746C21.5903 22.5134 21.6385 22.5694 21.6677 22.6355C21.697 22.7017 21.7059 22.7749 21.6936 22.8462C21.6812 22.9174 21.6482 22.9834 21.5985 23.0359ZM18.4307 16.1943C18.3619 16.1209 18.2788 16.0622 18.1866 16.022C18.0944 15.9817 17.995 15.9607 17.8943 15.9601H2.87758C2.80596 15.9602 2.7359 15.9811 2.67599 16.0204C2.61608 16.0596 2.56891 16.1155 2.54026 16.1811C2.51162 16.2468 2.50273 16.3193 2.5147 16.3899C2.52667 16.4605 2.55896 16.5262 2.60764 16.5787L5.77188 19.9771C5.84066 20.0506 5.9237 20.1092 6.01591 20.1495C6.10812 20.1897 6.20758 20.2108 6.3082 20.2113H21.325C21.3965 20.2109 21.4662 20.1897 21.5259 20.1504C21.5856 20.111 21.6324 20.0551 21.6609 19.9895C21.6893 19.924 21.6981 19.8515 21.6859 19.7811C21.6739 19.7106 21.6417 19.6452 21.5931 19.5928L18.4307 16.1943ZM2.87758 13.7541H17.8943C17.995 13.754 18.0946 13.7331 18.1869 13.6928C18.2792 13.6526 18.3621 13.5937 18.4307 13.5199L21.5985 10.1233C21.6482 10.0708 21.6812 10.0048 21.6936 9.93356C21.7059 9.86232 21.697 9.78903 21.6677 9.72291C21.6385 9.65679 21.5903 9.60079 21.5293 9.56197C21.4683 9.52314 21.3972 9.50322 21.325 9.50472H6.3082C6.20751 9.50482 6.10792 9.52567 6.01566 9.56596C5.92337 9.60626 5.84041 9.66513 5.77188 9.73891L2.60764 13.1355C2.55896 13.1881 2.52667 13.2537 2.5147 13.3243C2.50273 13.3949 2.51162 13.4675 2.54026 13.5331C2.56891 13.5988 2.61608 13.6546 2.67599 13.6939C2.7359 13.7331 2.80596 13.7541 2.87758 13.7541Z" fill="white"/>
<path fill-rule="evenodd" clip-rule="evenodd" d="M83.7158 11.4711H75.8499C75.5031 11.4693 75.1595 11.5357 74.8384 11.6666C74.5173 11.7976 74.225 11.9905 73.9787 12.2344C73.7322 12.4782 73.5361 12.7683 73.4016 13.0879C73.2672 13.4076 73.1969 13.7505 73.1951 14.0973V24.7002H75.8767V20.3543H83.7069V24.7002H86.3884V14.0973C86.3867 13.749 86.3159 13.4046 86.1804 13.0837C86.0447 12.7629 85.8471 12.4721 85.5986 12.228C85.3503 11.9839 85.0561 11.7914 84.7328 11.6615C84.4096 11.5316 84.0641 11.4669 83.7158 11.4711ZM83.6962 17.7085H75.866V14.117H83.6962V17.7085Z" fill="white"/>
<path fill-rule="evenodd" clip-rule="evenodd" d="M47.4056 11.4711H55.47C55.8168 11.4692 56.1604 11.5357 56.4815 11.6666C56.8026 11.7976 57.0949 11.9905 57.3412 12.2344C57.5877 12.4782 57.7838 12.7683 57.9183 13.0879C58.0527 13.4075 58.123 13.7505 58.1248 14.0973V22.074C58.123 22.4208 58.0527 22.7638 57.9183 23.0834C57.7838 23.403 57.5877 23.6931 57.3412 23.9369C57.0949 24.1808 56.8026 24.3737 56.4815 24.5047C56.1604 24.6356 55.8168 24.702 55.47 24.7002H47.4056C47.0583 24.703 46.7138 24.6373 46.3918 24.5067C46.07 24.3762 45.777 24.1834 45.5298 23.9395C45.2824 23.6955 45.0857 23.4052 44.9509 23.0851C44.816 22.765 44.7455 22.4214 44.7437 22.074V14.0973C44.7455 13.7499 44.816 13.4063 44.9509 13.0862C45.0857 12.7661 45.2824 12.4758 45.5298 12.2318C45.777 11.9879 46.07 11.7951 46.3918 11.6646C46.7138 11.534 47.0583 11.4683 47.4056 11.4711ZM47.4253 22.0544H55.4503L55.4468 14.1169H47.4253V22.0544Z" fill="white"/>
<path d="M31.8722 16.7627H39.9062C40.2532 16.7608 40.5973 16.8274 40.9186 16.9586C41.2398 17.0897 41.5321 17.283 41.7788 17.5272C42.0254 17.7714 42.2213 18.0619 42.3555 18.3819C42.4898 18.702 42.5595 19.0454 42.561 19.3924V22.074C42.5592 22.4207 42.4889 22.7637 42.3545 23.0834C42.22 23.403 42.0239 23.693 41.7774 23.9369C41.5311 24.1807 41.2388 24.3736 40.9177 24.5046C40.5966 24.6356 40.253 24.702 39.9062 24.7001H29.382V22.0543H39.8901V19.4085H31.8454C31.4984 19.4104 31.1543 19.3438 30.833 19.2127C30.5118 19.0815 30.2195 18.8882 29.9728 18.644C29.7263 18.3997 29.5303 18.1093 29.3961 17.7892C29.2618 17.4692 29.1921 17.1258 29.1907 16.7788V14.0972C29.1925 13.7505 29.2627 13.4075 29.3972 13.0878C29.5316 12.7682 29.7277 12.4782 29.9742 12.2343C30.2206 11.9905 30.5129 11.7975 30.8339 11.6666C31.155 11.5356 31.4986 11.4692 31.8454 11.4711H41.9942V14.1169H31.8722V16.7627Z" fill="white"/>
<path fill-rule="evenodd" clip-rule="evenodd" d="M107.162 11.4711H115.027C115.374 11.4692 115.718 11.5356 116.039 11.6666C116.36 11.7975 116.652 11.9905 116.899 12.2343C117.145 12.4782 117.341 12.7682 117.476 13.0878C117.61 13.4075 117.68 13.7505 117.682 14.0972V24.7001H115.001V20.3542H107.188V24.7001H104.507V14.0972C104.509 13.7505 104.579 13.4075 104.713 13.0878C104.848 12.7682 105.044 12.4782 105.29 12.2343C105.537 11.9905 105.829 11.7975 106.15 11.6666C106.471 11.5356 106.815 11.4692 107.162 11.4711ZM107.17 17.7084H115.001V14.1169H107.17V17.7084Z" fill="white"/>
<path d="M99.4477 22.0543H98.375L94.5404 12.5794C94.409 12.2526 94.1829 11.9724 93.8911 11.7749C93.5994 11.5774 93.2552 11.4716 92.9029 11.4711H90.5234C90.2921 11.4699 90.0629 11.5143 89.8489 11.6017C89.6348 11.6891 89.4401 11.8178 89.2756 11.9805C89.1113 12.1432 88.9806 12.3366 88.8911 12.5498C88.8015 12.763 88.7548 12.9918 88.7536 13.223V24.7001H91.4352V14.1169H92.5078L96.3406 23.5917C96.4742 23.918 96.7021 24.197 96.9951 24.3931C97.2879 24.5893 97.6328 24.6937 97.9853 24.693H100.365C100.596 24.6941 100.825 24.6498 101.039 24.5623C101.253 24.4749 101.448 24.3462 101.613 24.1835C101.777 24.0208 101.908 23.8274 101.997 23.6142C102.087 23.401 102.133 23.1723 102.135 22.941V11.4711H99.4477V22.0543Z" fill="white"/>
<path d="M60.4936 11.4711H63.1751V22.0544H71.202V24.7002H63.1573C62.8097 24.7032 62.4651 24.6377 62.1429 24.5072C61.821 24.3768 61.5276 24.1841 61.2802 23.9401C61.0328 23.6961 60.8359 23.4057 60.701 23.0855C60.566 22.7653 60.4954 22.4215 60.4936 22.074V11.4711Z" fill="white"/>
</svg>
