<svg width="51" height="51" viewBox="0 0 51 51" fill="none" xmlns="http://www.w3.org/2000/svg">
<circle cx="25.702" cy="25.5443" r="25.0843" fill="white" fill-opacity="0.1"/>
<g clip-path="url(#clip0_93_2110)">
<path d="M34.4813 34.9509H17.5494C17.2167 34.9509 16.8977 34.8188 16.6625 34.5836C16.4273 34.3484 16.2952 34.0294 16.2952 33.6967V16.7648C16.2952 16.5985 16.3612 16.439 16.4788 16.3214C16.5964 16.2038 16.756 16.1377 16.9223 16.1377C17.0886 16.1377 17.2481 16.2038 17.3657 16.3214C17.4833 16.439 17.5494 16.5985 17.5494 16.7648V33.6967H34.4813C34.6476 33.6967 34.8071 33.7628 34.9247 33.8804C35.0423 33.998 35.1084 34.1575 35.1084 34.3238C35.1084 34.4901 35.0423 34.6497 34.9247 34.7673C34.8071 34.8849 34.6476 34.9509 34.4813 34.9509Z" fill="#FF8811"/>
<path d="M21.7825 32.4426H20.2147C19.8405 32.4426 19.4816 32.2939 19.217 32.0293C18.9524 31.7647 18.8037 31.4058 18.8037 31.0316V25.0741C18.8037 24.6999 18.9524 24.341 19.217 24.0764C19.4816 23.8117 19.8405 23.6631 20.2147 23.6631H21.7825C22.1567 23.6631 22.5156 23.8117 22.7802 24.0764C23.0448 24.341 23.1935 24.6999 23.1935 25.0741V31.0316C23.1935 31.4058 23.0448 31.7647 22.7802 32.0293C22.5156 32.2939 22.1567 32.4426 21.7825 32.4426Z" fill="#FF8811"/>
<path d="M27.4265 32.4426H25.8587C25.4845 32.4426 25.1256 32.2939 24.861 32.0293C24.5964 31.7647 24.4478 31.4058 24.4478 31.0316V23.1927C24.4478 22.8185 24.5964 22.4596 24.861 22.195C25.1256 21.9304 25.4845 21.7817 25.8587 21.7817H27.4265C27.8007 21.7817 28.1596 21.9304 28.4242 22.195C28.6889 22.4596 28.8375 22.8185 28.8375 23.1927V31.0316C28.8375 31.4058 28.6889 31.7647 28.4242 32.0293C28.1596 32.2939 27.8007 32.4426 27.4265 32.4426Z" fill="#FF8811"/>
<path d="M33.0562 32.4427H31.4884C31.1142 32.4427 30.7553 32.294 30.4907 32.0294C30.226 31.7648 30.0774 31.4059 30.0774 31.0317V20.6844C30.0774 20.3102 30.226 19.9513 30.4907 19.6867C30.7553 19.4221 31.1142 19.2734 31.4884 19.2734H33.0562C33.4304 19.2734 33.7893 19.4221 34.0539 19.6867C34.3185 19.9513 34.4671 20.3102 34.4671 20.6844V31.0317C34.4671 31.4059 34.3185 31.7648 34.0539 32.0294C33.7893 32.294 33.4304 32.4427 33.0562 32.4427Z" fill="#FF8811"/>
</g>
<defs>
<clipPath id="clip0_93_2110">
<rect width="20.0675" height="20.0675" fill="white" transform="translate(15.6682 15.5103)"/>
</clipPath>
</defs>
</svg>
