<svg width="51" height="51" viewBox="0 0 51 51" fill="none" xmlns="http://www.w3.org/2000/svg">
<circle cx="25.0785" cy="25.5443" r="25.0843" fill="white" fill-opacity="0.1"/>
<g clip-path="url(#clip0_93_2120)">
<path d="M27.8162 17.726C27.0046 16.8497 25.8711 16.3672 24.6199 16.3672C23.3621 16.3672 22.2247 16.8468 21.4169 17.7176C20.6003 18.598 20.2024 19.7945 20.2959 21.0866C20.481 23.6356 22.4208 25.7092 24.6199 25.7092C26.819 25.7092 28.7554 23.636 28.9435 21.0874C29.0382 19.8071 28.6378 18.613 27.8162 17.726Z" fill="#FF8811"/>
<path d="M31.96 35.0514H17.2796C17.0875 35.0539 16.8972 35.0135 16.7226 34.9332C16.548 34.8529 16.3935 34.7347 16.2704 34.5872C15.9993 34.2632 15.89 33.8207 15.9709 33.3732C16.3229 31.4205 17.4214 29.7802 19.148 28.6288C20.682 27.6066 22.625 27.0439 24.6198 27.0439C26.6146 27.0439 28.5577 27.607 30.0916 28.6288C31.8182 29.7798 32.9167 31.4201 33.2687 33.3728C33.3496 33.8203 33.2403 34.2628 32.9693 34.5868C32.8461 34.7344 32.6917 34.8527 32.5171 34.9331C32.3425 35.0134 32.1522 35.0539 31.96 35.0514Z" fill="#FF8811"/>
</g>
<defs>
<clipPath id="clip0_93_2120">
<rect width="20.0675" height="20.0675" fill="white" transform="translate(15.0447 15.5103)"/>
</clipPath>
</defs>
</svg>
