<svg width="114" height="38" viewBox="0 0 114 38" fill="none" xmlns="http://www.w3.org/2000/svg">
<path fill-rule="evenodd" clip-rule="evenodd" d="M89.2264 25.3147V24.156C89.2264 24.1291 89.1994 24.1292 89.1724 24.1292C89.0377 24.2639 88.93 24.3983 88.7952 24.5061C88.1483 25.1261 87.3666 25.5037 86.5041 25.6385C84.159 25.9889 82.0566 24.4525 81.4366 22.2692C81.2479 21.5953 81.1401 20.8942 81.1671 20.1933C81.3288 17.6596 83.1885 15.8001 85.1292 15.5036C86.6656 15.288 88.0134 15.6114 89.0377 16.8514C89.0916 16.9053 89.1185 16.9318 89.1724 16.9588C89.1724 16.9857 89.1725 16.9588 89.2264 16.9588C89.2264 16.8509 89.2264 16.7165 89.2264 16.6087C89.2533 16.0965 89.577 15.7731 90.0621 15.8C90.4665 15.8 90.8438 15.8 91.2211 15.8C91.2481 15.8 91.2749 15.8 91.3288 15.8C91.3288 15.8809 91.3559 15.9619 91.3559 16.0427C91.3559 19.0886 91.3559 22.1341 91.3559 25.18C91.3559 25.2339 91.3558 25.2608 91.3288 25.3147C91.2749 25.3417 91.2211 25.369 91.1672 25.369C90.5742 25.3959 89.9813 25.3959 89.3883 25.369C89.3344 25.369 89.2803 25.3417 89.2264 25.3147ZM89.0916 20.544C89.2803 19.0614 87.9595 17.6869 86.3961 17.6869C84.9675 17.7138 83.5389 18.6843 83.5119 20.625C83.485 22.1884 84.752 23.3741 86.3693 23.4011C88.1214 23.428 89.2803 21.8917 89.0916 20.544ZM73.377 25.3147C73.2423 25.3417 73.0807 25.3958 72.9459 25.3958C72.5416 25.3958 72.1642 25.3958 71.7329 25.3958C71.7329 25.2341 71.7058 25.1262 71.7058 25.0183C71.7058 20.9751 71.7058 16.9318 71.7058 12.9156C71.7058 12.8077 71.7597 12.6733 71.7866 12.5655C71.7866 15.4496 71.7867 18.3069 71.7598 21.1641V25.2879V24.8836C71.7598 23.6437 71.7598 22.4041 71.7598 21.1641C71.7867 18.3069 71.7866 15.4496 71.7866 12.5655C72.2179 12.5655 72.6761 12.5655 73.1343 12.5655C73.6465 12.5655 73.8892 12.754 74.0509 13.2662C74.0509 13.374 74.0778 13.509 74.0778 13.6168C74.1047 14.5333 74.0778 15.4495 74.0778 16.366C74.5899 15.9077 75.156 15.5845 75.8298 15.5036C78.0671 15.1532 80.0348 16.6086 80.1966 18.7919C80.2505 19.4658 80.2774 20.1396 80.2774 20.8135C80.2774 22.323 80.2775 23.8053 80.2505 25.3147C80.1966 25.3417 80.1158 25.369 80.0349 25.369C79.3341 25.3959 78.6602 25.369 77.9594 25.369C77.9324 25.2881 77.9054 25.2071 77.9054 25.1263C77.9054 23.3473 77.9054 21.5681 77.9054 19.7622C77.8515 19.4926 77.8246 19.1962 77.7438 18.9267C77.5012 18.145 76.9621 17.7407 76.1265 17.7137C75.237 17.6868 74.5362 18.0909 74.2936 18.8456C74.1588 19.196 74.1586 19.6007 74.0778 19.978C74.0778 20.9484 74.0778 21.9458 74.0778 22.9162C74.0778 23.3744 74.1047 23.8327 74.0778 24.2639C74.0778 24.3987 74.0509 24.5062 74.0509 24.614C73.9701 24.9914 73.7544 25.2339 73.377 25.3147ZM103.674 19.978C103.62 19.6546 103.593 19.3038 103.486 18.9804C103.27 18.1987 102.596 17.7137 101.814 17.7137C100.925 17.7137 100.197 18.1717 99.9814 18.9804C99.8736 19.4117 99.7927 19.8699 99.7927 20.3281C99.7658 21.5411 99.7927 22.7814 99.7927 23.9944C99.7927 24.8569 99.2807 25.3689 98.4181 25.3958C98.1216 25.3958 97.825 25.3958 97.5016 25.3958V15.7458C97.9867 15.7458 98.4988 15.6653 99.0109 15.8C99.3613 15.9078 99.55 16.2043 99.6848 16.6087C99.7387 16.5009 99.8198 16.3931 99.9006 16.3123C100.521 15.7462 101.221 15.4764 102.057 15.4494C102.92 15.4224 103.674 15.6382 104.375 16.0964C105.426 16.7972 105.858 17.8485 105.965 19.0614C105.965 19.1962 105.965 19.331 105.992 19.4658C105.992 19.5736 106.019 19.7085 106.019 19.8432C106.046 21.5683 106.046 23.2932 106.019 25.0183C106.019 25.1262 105.992 25.2342 105.965 25.369H103.728C103.701 25.2881 103.647 25.1803 103.647 25.0994C103.647 23.4013 103.647 21.7299 103.647 20.0317C103.647 20.0048 103.647 19.978 103.674 19.978ZM39.7104 15.8C39.7104 15.7731 39.7376 15.7458 39.7376 15.7458C40.3036 15.7458 40.8696 15.7732 41.4357 15.7732C42.0556 15.908 42.433 16.2853 42.6486 16.8514C43.1069 18.1452 43.565 19.4118 44.0232 20.7056C44.158 21.083 44.2929 21.4872 44.4546 21.9454C44.5355 21.7837 44.5625 21.7031 44.5894 21.5953C45.1555 20.0319 45.7216 18.4685 46.2607 16.8782C46.4763 16.2852 46.8537 15.908 47.4736 15.7732C47.9049 15.7732 48.3361 15.7459 48.7674 15.719C48.9291 15.719 49.064 15.7731 49.2257 15.8C48.8753 16.6356 48.5516 17.4982 48.2012 18.3607C47.3117 20.598 46.3953 22.8353 45.4789 25.0726C45.4519 25.1804 45.3979 25.2612 45.3709 25.369H43.5652C43.4574 25.0994 43.3224 24.8026 43.2146 24.5061C42.0825 21.7028 40.9236 18.8729 39.7915 16.0696C39.7646 15.9618 39.7374 15.8809 39.7104 15.8ZM93.1619 25.369C93.135 25.2612 93.0809 25.153 93.0809 25.0452C93.0809 22.3228 93.0809 19.6005 93.0809 16.9051C93.0809 16.7703 93.1079 16.6623 93.1348 16.5544C93.2157 16.1501 93.4583 15.881 93.8627 15.7732C93.9974 15.7732 94.1591 15.719 94.2938 15.719C94.6712 15.719 95.0488 15.719 95.4531 15.719C95.4531 15.8807 95.48 15.9886 95.48 16.0964C95.48 19.0884 95.48 22.0532 95.48 25.0452C95.48 25.153 95.4261 25.2612 95.3991 25.369H93.1619ZM59.145 19.4658C57.5277 20.1935 55.9103 20.9485 54.266 21.7032C53.9695 21.0563 53.7002 20.4364 53.4037 19.8164C53.9158 19.6008 54.374 19.385 54.8322 19.1694C55.2905 18.9537 55.7756 18.7381 56.2608 18.4955C55.8834 18.0912 55.452 17.8214 54.9399 17.7406C54.4008 17.6867 53.8619 17.6598 53.3497 17.8485C52.1907 18.2798 51.4358 19.3311 51.4897 20.5171C51.5706 22.2961 53.0532 23.5629 54.5627 23.3742C55.6409 23.2664 56.4225 22.7003 56.9346 21.7569C57.0425 21.5682 57.1503 21.4603 57.339 21.3795C57.905 21.1099 58.4712 20.8404 59.0642 20.5708C59.145 20.5439 59.2259 20.5168 59.3337 20.4629C59.4415 20.8133 59.3876 21.1372 59.3337 21.4337C58.9833 23.7787 56.7998 25.6116 54.4548 25.6385C52.1906 25.6924 49.7917 24.1828 49.3065 21.2447C48.9022 18.7379 50.5732 15.908 53.4574 15.5036C56.4494 15.0724 58.7137 17.1746 59.145 19.4658ZM70.4389 18.9267H67.9053C67.5279 18.6032 67.2582 18.3068 66.9348 18.0912C66.4226 17.7138 65.8027 17.6867 65.1827 17.7406C64.9131 17.7945 64.6706 17.8486 64.428 17.9564C63.5385 18.3607 63.0802 19.0616 62.8915 19.978C62.5681 21.6492 63.7272 23.5359 65.9645 23.3742C66.6653 23.3203 67.2313 22.9699 67.6626 22.4308C67.7165 22.3769 67.7435 22.2962 67.7974 22.2423H70.4389C70.385 22.3771 70.358 22.5119 70.3041 22.6466C69.5224 24.3718 68.1747 25.342 66.3148 25.6385C63.7002 26.0428 61.0317 24.1558 60.6004 21.5142C60.25 19.4657 60.8699 17.7677 62.4872 16.4739C63.3767 15.7731 64.3741 15.4764 65.5062 15.4494C66.7461 15.4224 67.8245 15.773 68.7679 16.5007C69.5496 17.1207 70.1424 17.9024 70.4389 18.9267Z" fill="white"/>
<path d="M94.3251 14.6408C94.6743 14.6408 95.0501 14.6408 95.3992 14.6139C95.4261 14.533 95.48 14.4522 95.48 14.3444V12.835C95.48 12.7541 95.426 12.6463 95.426 12.5655H95.3992L95.3989 12.5651C95.372 12.5383 95.345 12.5112 95.2913 12.5112H93.2697C93.2158 12.5112 93.189 12.5385 93.162 12.5655C93.135 12.862 93.1079 13.1855 93.1349 13.482C93.1888 14.102 93.701 14.6138 94.321 14.6408H94.3251Z" fill="white"/>
<path fill-rule="evenodd" clip-rule="evenodd" d="M33.5379 7.68628C33.6457 7.68628 33.7535 7.68628 33.8882 7.68628C33.8613 7.7941 33.8344 7.87496 33.8074 7.95583C32.298 11.0826 30.7885 14.209 29.2791 17.3358C28.713 18.5218 28.1468 19.6807 27.5807 20.8667C27.2573 21.5676 26.934 22.2687 26.5836 22.9426C25.4245 25.3955 24.2385 27.8212 23.0795 30.2741C22.9986 30.301 22.8908 30.3283 22.8099 30.3283C22.2978 30.3552 21.7856 30.3551 21.2735 30.3551C20.923 30.3551 20.5726 30.3552 20.1953 30.3283C20.1144 30.3283 20.0066 30.301 19.9257 30.2741C19.8718 30.1662 19.8449 30.0585 19.7909 29.9777C19.3058 28.9534 18.8205 27.9559 18.3353 26.9316C17.931 26.1229 17.5538 25.3144 17.1494 24.4788C16.5834 23.3197 16.0171 22.1337 15.4511 20.9747C15.4241 20.9208 15.4243 20.867 15.3974 20.813C14.9391 19.8696 14.4808 18.9262 14.0225 17.9828C13.8069 17.5515 13.6182 17.12 13.4026 16.6888C13.0522 15.961 12.6748 15.2066 12.3244 14.4518C11.3001 12.3224 10.2758 10.1927 9.25147 8.06323C9.22452 7.98236 9.19762 7.90192 9.17066 7.82105C9.14371 7.7941 9.14365 7.76704 9.1167 7.71313C9.19756 7.68617 9.27853 7.68628 9.3594 7.68628H11.8393C13.0253 7.68628 14.1842 7.68628 15.3703 7.68628C15.8824 7.68628 16.4215 7.76704 16.9067 7.98268C17.5536 8.14441 18.0928 8.52167 18.578 8.95294C18.8206 9.16858 19.0091 9.41107 19.2247 9.65366C19.3865 9.89626 19.5752 10.1392 19.683 10.3818C20.276 11.5678 20.8421 12.7804 21.4351 13.9664C21.4351 14.0203 21.4622 14.0741 21.4622 14.128C21.7587 14.6671 22.0281 15.2062 22.2977 15.7453C22.7829 16.7427 23.2682 17.7673 23.7533 18.7646C23.7803 18.8455 23.8072 18.8995 23.8342 19.0073C23.322 20.0316 22.8367 21.0827 22.3245 22.1339C22.2976 22.1339 22.2707 22.1339 22.2437 22.1339C21.9203 21.487 21.6238 20.8129 21.3003 20.166C20.5725 18.6835 19.8717 17.2278 19.1439 15.7453C19.117 15.6914 19.0901 15.6109 19.0631 15.53C18.551 14.4788 18.0657 13.4546 17.5266 12.4034C17.338 11.9721 17.1763 11.5407 16.8259 11.2172C16.5294 11.0286 16.2058 10.9477 15.8554 10.9477C15.8284 10.9477 15.8017 10.9477 15.8017 10.9477C15.5591 10.9477 15.3433 10.9477 15.1007 10.9477C14.912 10.9477 14.7503 10.9477 14.5616 10.9477C14.3999 10.9477 14.2652 10.9477 14.1304 10.9477C14.0226 10.9477 13.9149 11.0013 13.7801 11.0283C14.3731 12.2412 14.966 13.4816 15.559 14.6945C15.9633 15.5571 16.3945 16.4195 16.7988 17.2821C16.9875 17.6864 17.1763 18.0908 17.365 18.4682C17.7424 19.2229 18.0927 20.0046 18.4701 20.7593C18.9822 21.8106 19.4944 22.8884 20.0065 23.9665C20.1413 24.263 20.3031 24.5597 20.4648 24.8831C20.7613 25.5031 21.0578 26.1231 21.3543 26.7431C21.3812 26.797 21.435 26.8779 21.5159 27.0126C21.8933 26.204 22.2707 25.4495 22.648 24.6678C23.0793 23.7783 23.4837 22.8888 23.915 21.9723C24.9932 19.7351 26.0982 17.4704 27.1764 15.2062C27.2573 15.0715 27.3114 14.9371 27.3922 14.8293C27.7427 14.0746 28.0929 13.3196 28.4433 12.5918C29.0633 11.2711 29.7102 9.97733 30.3302 8.65655C30.6267 7.98268 31.139 7.68628 31.8398 7.68628H31.8666C32.0284 7.68628 32.2171 7.68628 32.3789 7.68628C32.7023 7.68628 33.0257 7.68628 33.3491 7.68628C33.403 7.68628 33.484 7.68628 33.5379 7.68628Z" fill="white"/>
</svg>
