<svg width="150" height="50" viewBox="0 0 150 50" fill="none" xmlns="http://www.w3.org/2000/svg">
<path d="M27.2565 36.8577C27.1954 36.873 27.1343 36.873 27.0732 36.873H26.4469C23.682 36.873 21.131 35.9259 19.1146 34.3372C18.0911 33.4054 17.4037 32.1681 17.0218 31.3279C16.701 30.6252 16.4413 29.892 16.2733 29.1282C16.1052 28.3797 16.0136 27.6159 15.9983 26.8368V26.4397C16.0059 26.3251 16.0136 26.2144 16.0212 26.1036C16.0289 25.9929 16.0365 25.8821 16.0441 25.7675C16.1052 25.0496 16.258 24.3316 16.4566 23.6442C16.6704 22.9415 16.9454 22.2541 17.2967 21.6125C17.6481 20.9404 18.0758 20.3141 18.5646 19.7336C19.084 19.1073 19.6798 18.5421 20.3213 18.0533C20.9476 17.5797 21.6198 17.1673 22.3377 16.8312C23.0404 16.5104 23.7737 16.2508 24.5374 16.0827C25.286 15.9147 26.0497 15.823 26.8288 15.8078H27.226V17.8394H26.8746C24.3389 17.9005 21.8642 18.9851 20.1228 21.0473C18.7327 22.6971 18.0453 24.7135 18.03 26.7299C17.9994 29.4337 19.1604 32.1528 21.4212 34.047C22.7807 35.1774 24.3847 35.8343 26.065 36.2009C26.8135 36.3689 28.005 36.5675 29.4715 36.5217C29.4104 36.537 29.3531 36.5522 29.2958 36.5675C29.2386 36.5828 29.1813 36.5981 29.1202 36.6133H29.1049C29.082 36.621 29.0553 36.6248 29.0285 36.6286C29.0018 36.6324 28.9751 36.6362 28.9521 36.6439H28.9216C28.8147 36.6744 28.6925 36.705 28.5702 36.7203C28.5397 36.7279 28.513 36.7317 28.4862 36.7355C28.4595 36.7394 28.4328 36.7432 28.4022 36.7508H28.3717C28.3488 36.7508 28.3258 36.7546 28.3029 36.7585C28.28 36.7623 28.2571 36.7661 28.2342 36.7661H28.2036L28.1881 36.77L28.1734 36.7739C28.1264 36.7862 28.0862 36.7966 28.0356 36.7966C28.005 36.7966 27.9745 36.8005 27.9439 36.8043C27.9134 36.8081 27.8828 36.8119 27.8523 36.8119H27.8217C27.789 36.8119 27.7606 36.8163 27.7343 36.8204C27.7115 36.8239 27.6902 36.8272 27.669 36.8272H27.6232C27.5773 36.8425 27.5315 36.8425 27.4857 36.8425H27.4398C27.3788 36.8577 27.3329 36.8577 27.2718 36.8577H27.2565Z" fill="white"/>
<path d="M30.0525 34.9024C29.3498 34.8871 28.4791 34.7802 27.8069 34.658C24.6601 34.0928 21.9563 32.1681 20.9634 29.2657C19.7566 25.737 21.605 21.918 25.1184 20.7571C25.8058 20.5279 26.4932 20.421 27.1959 20.421C28.0972 20.421 28.9984 20.6043 29.8233 20.9404L30.6788 19.1226C30.4191 19.0156 30.1594 18.924 29.8997 18.8323C29.029 18.5574 28.1125 18.4199 27.1959 18.4199C26.2794 18.4199 25.3628 18.5726 24.4921 18.8629C23.377 19.2295 22.3535 19.8253 21.4828 20.6043C21.0703 20.9709 20.6732 21.3987 20.3371 21.8417C20.001 22.2847 19.7108 22.7582 19.4664 23.2623C19.222 23.7664 19.0234 24.2858 18.8859 24.8204C18.7484 25.3551 18.6415 25.9203 18.6109 26.4855C18.5346 27.6464 18.6873 28.8074 19.0692 29.9073C19.4511 31.0224 20.0621 32.0459 20.9023 32.9471C21.6508 33.7567 22.5215 34.3678 23.5756 34.933C24.6754 35.5135 26.035 35.819 27.4556 36.0176C28.3721 36.1398 29.5942 36.1703 30.3122 36.1703C30.9231 35.9468 31.1852 35.8396 31.5097 35.7068L31.5342 35.6968C31.8245 35.5593 32.1147 35.4218 32.4049 35.2538C32.6891 35.0893 32.739 35.0565 33.1996 34.7542L33.2 34.754L33.2298 34.7344C33.2757 34.7038 33.3215 34.6733 33.352 34.6427C31.6921 34.9445 31.2546 34.9333 30.0956 34.9035L30.0525 34.9024Z" fill="white"/>
<path d="M33.7459 32.6458L33.8105 32.6416C34.3178 32.6035 35.0042 32.5339 35.4849 32.4851C35.583 32.4752 35.6728 32.4661 35.7505 32.4583C35.2158 33.1304 34.5895 33.7414 33.9174 34.2761C33.2147 34.4289 32.8023 34.49 32.2523 34.5205C30.2665 34.658 28.2195 34.49 26.8294 34.0317C25.3782 33.5429 24.0187 32.6874 23.0258 31.6181C22.4606 31.0071 22.0176 30.3502 21.6968 29.6475C21.3454 28.8532 21.1621 28.013 21.1621 27.1729C21.1621 26.3327 21.3302 25.5231 21.651 24.7593C21.9565 24.0261 22.4147 23.3539 22.9799 22.7887C23.5451 22.2235 24.2173 21.7653 24.9505 21.4597C25.7143 21.139 26.5239 20.9709 27.3641 20.9709C28.2043 20.9709 29.0139 21.139 29.7777 21.4597C30.5109 21.7653 31.183 22.2235 31.7482 22.7887C32.1912 23.2165 32.5426 23.7053 32.8328 24.2399L31.015 25.1412C30.297 23.8733 28.9375 23.0026 27.3641 23.0026C25.0574 23.0026 23.1785 24.8662 23.1785 27.1882C23.1785 29.5101 25.256 31.389 27.4557 32.1222C28.8764 32.5958 30.5414 32.718 31.901 32.718C32.6306 32.718 33.2767 32.6762 33.7459 32.6458Z" fill="white"/>
<path fill-rule="evenodd" clip-rule="evenodd" d="M41.0658 21.9792C40.8672 21.0168 40.577 20.085 40.1951 19.1837C39.8285 18.2977 39.3549 17.4575 38.8203 16.6479C38.2856 15.8536 37.6746 15.1203 37.0025 14.4482C36.3303 13.7761 35.5971 13.165 34.8027 12.6304C34.0084 12.0957 33.153 11.6375 32.267 11.2556C31.3657 10.8737 30.4339 10.5834 29.4715 10.3849C28.4939 10.1863 27.4857 10.0793 26.4775 10.0793C25.4693 10.0793 24.4763 10.2016 23.4987 10.4001C22.5363 10.5987 21.6045 10.889 20.7032 11.2709C19.8172 11.6375 18.9771 12.111 18.1675 12.6457C17.3731 13.1803 16.6399 13.7914 15.9677 14.4635C15.2956 15.1356 14.6846 15.8689 14.1499 16.6632C13.6153 17.4575 13.157 18.313 12.7751 19.199C12.3932 20.1002 12.103 21.0321 11.9044 21.9944C11.7058 22.9721 11.5989 23.9803 11.5989 24.9885C11.5989 25.9967 11.7058 27.0049 11.9044 27.9825C12.103 28.9449 12.3932 29.8767 12.7751 30.778C13.1417 31.664 13.6153 32.5042 14.1499 33.3138C14.6846 34.1081 15.2956 34.8413 15.9677 35.5135C16.6399 36.1856 17.3731 36.7966 18.1675 37.3313C18.9618 37.8659 19.8172 38.3242 20.7032 38.7061C21.6045 39.088 22.5363 39.3782 23.4987 39.5768C24.4763 39.7754 25.4845 39.8823 26.4927 39.8823C27.5009 39.8823 28.5091 39.7754 29.4868 39.5768C30.4492 39.3782 31.381 39.088 32.2822 38.7061C33.1682 38.3395 34.0084 37.8659 34.818 37.3313C35.6124 36.7966 36.3456 36.1856 37.0177 35.5135C37.6899 34.8413 38.3009 34.1081 38.8355 33.3138C39.3702 32.5194 39.8285 31.664 40.2104 30.778C40.5923 29.8767 40.8825 28.9449 41.0811 27.9825C41.2797 27.0049 41.3866 25.9967 41.3866 24.9885C41.3713 23.965 41.2644 22.9568 41.0658 21.9792ZM26.4927 37.9882C19.2979 37.9882 13.4778 32.1528 13.4778 24.9732C13.4778 17.7936 19.3131 11.9583 26.4927 11.9583C33.6723 11.9583 39.5077 17.7936 39.5077 24.9732C39.5077 32.1681 33.6876 37.9882 26.4927 37.9882Z" fill="white"/>
<path fill-rule="evenodd" clip-rule="evenodd" d="M58.1904 27.9978C58.1904 29.5406 57.6251 30.671 56.6322 31.4195C55.731 32.1222 54.4936 32.5194 52.8897 32.5041H45.374V17.2131H52.7369C54.3256 17.2131 55.4865 17.6103 56.2962 18.2671C57.1669 19.0004 57.6099 19.978 57.6099 21.2001C57.6099 22.7124 56.8155 23.6747 55.456 24.1941V24.2705C57.121 24.7746 58.1904 26.1952 58.1904 27.9978ZM52.2023 20.2224H49.1013V23.2776H52.1717C53.2716 23.2776 54.0048 22.7276 54.0048 21.7347C54.0048 20.7876 53.3021 20.2224 52.2023 20.2224ZM49.1013 25.8286V29.4643H52.4925C53.7298 29.4643 54.4936 28.7616 54.4936 27.6617C54.4936 26.4396 53.5923 25.8286 52.4467 25.8286H49.1013Z" fill="white"/>
<path d="M74.3827 32.4888H78.171V20.421H82.1427V17.2131H70.4873V20.421H74.3827V32.4888Z" fill="white"/>
<path d="M136.173 32.6111C134.126 32.6111 132.69 31.9542 132.69 29.617V23.7358H131.224V21.5667H132.675V18.0991H136.066V21.5667H138.037V23.7358H136.066V28.8685C136.066 29.7239 136.524 29.9378 137.288 29.9378C137.475 29.9378 137.875 29.9263 138.184 29.9174C138.38 29.9118 138.539 29.9072 138.587 29.9072V32.443C138.296 32.5347 137.105 32.6111 136.173 32.6111Z" fill="white"/>
<path d="M123.448 26.4396C123.448 25.0801 124.227 24.1177 125.373 24.1177C126.488 24.1177 127.084 24.9274 127.084 26.073V32.5194H130.552V25.4009C130.552 22.9568 129.131 21.2612 126.748 21.2612C125.236 21.2612 124.182 21.9028 123.387 23.0637H123.311V21.582H119.965V32.5041H123.448V26.4396Z" fill="white"/>
<path d="M96.1964 27.6159C96.1964 25.2481 97.6171 24.2552 99.4349 24.4996H99.5265V21.4903C99.3738 21.4139 99.1599 21.3681 98.8391 21.3987C97.8462 21.4445 96.8838 21.9791 96.1048 23.2776H96.0284V21.5667H92.683V32.5194H96.1659V27.6159H96.1964Z" fill="white"/>
<path d="M104.048 27.6159V32.5194H100.535V21.5667H103.88V23.2776H103.957C104.736 21.9791 105.698 21.4445 106.691 21.3987C107.012 21.3681 107.226 21.4139 107.378 21.4903V24.4996H107.287C105.469 24.2552 104.048 25.2481 104.048 27.6159Z" fill="white"/>
<path fill-rule="evenodd" clip-rule="evenodd" d="M113.321 32.8096C114.711 32.8096 115.811 32.443 116.742 31.8167C117.689 31.1599 118.331 30.2128 118.575 29.2351H115.184C114.894 29.9225 114.313 30.335 113.382 30.335C111.946 30.335 111.136 29.4031 110.922 27.9519H118.774C118.805 25.737 118.132 23.8275 116.849 22.636C115.917 21.7805 114.68 21.2764 113.122 21.2764C109.807 21.2764 107.516 23.7664 107.516 27.0354C107.485 30.3197 109.715 32.8096 113.321 32.8096ZM113.153 23.7053C114.268 23.7053 115.108 24.5607 115.23 25.8592H110.907C111.151 24.5302 111.839 23.7053 113.153 23.7053Z" fill="white"/>
<path fill-rule="evenodd" clip-rule="evenodd" d="M79.805 27.0507C79.805 30.3503 82.1422 32.8249 85.6556 32.8249C89.169 32.8249 91.491 30.335 91.491 27.0507C91.491 23.7664 89.169 21.2765 85.6556 21.2765C82.1422 21.2765 79.805 23.7511 79.805 27.0507ZM85.6404 23.7053C87.1526 23.7053 87.9622 25.0648 87.9622 27.0507C87.9622 29.0365 87.1526 30.3503 85.6404 30.3655C84.0975 30.3655 83.3184 29.0518 83.3184 27.0507C83.3184 25.0496 84.128 23.7053 85.6404 23.7053Z" fill="white"/>
<path d="M59.6564 21.5667H63.1393V32.4888H59.6564V21.5667Z" fill="white"/>
<path d="M69.1885 32.6111C67.1721 32.6111 65.7056 31.9542 65.7056 29.617H65.6903V23.7358H64.2238V21.5667H65.6903V18.0991H69.0815V21.5667H71.0521V23.7358H69.0815V28.8685C69.0815 29.7239 69.5398 29.9378 70.3036 29.9378C70.4907 29.9378 70.89 29.9263 71.1993 29.9174L71.2005 29.9174C71.3956 29.9118 71.5548 29.9072 71.602 29.9072V32.443C71.3118 32.5347 70.1203 32.6111 69.1885 32.6111Z" fill="white"/>
<path d="M59.6564 17.2131H63.1393V20.0391H59.6564V17.2131Z" fill="white"/>
</svg>
