<svg width="97" height="97" viewBox="0 0 97 97" fill="none" xmlns="http://www.w3.org/2000/svg">
<g filter="url(#filter0_b_129_169)">
<rect x="1" y="1" width="95" height="95" rx="47.5" fill="white" fill-opacity="0.1"/>
<rect x="1" y="1" width="95" height="95" rx="47.5" stroke="white" stroke-opacity="0.12" stroke-width="2"/>
</g>
<g clip-path="url(#clip0_129_169)">
<path d="M22.24 34.4601C22.24 32.0644 24.1843 30.1201 26.58 30.1201H60.06C62.4557 30.1201 64.4 32.0644 64.4 34.4601V55.5401C64.4 56.6912 63.9427 57.7951 63.1288 58.609C62.3149 59.4229 61.211 59.8801 60.06 59.8801H26.58C25.429 59.8801 24.3251 59.4229 23.5111 58.609C22.6972 57.7951 22.24 56.6912 22.24 55.5401V34.4601ZM29.68 33.2201V35.7001C29.68 36.1934 29.484 36.6665 29.1352 37.0153C28.7864 37.3642 28.3133 37.5601 27.82 37.5601H25.34V41.2801H27.82C28.5528 41.2801 29.2784 41.1358 29.9554 40.8554C30.6324 40.5749 31.2475 40.1639 31.7656 39.6458C32.2838 39.1276 32.6948 38.5125 32.9752 37.8355C33.2557 37.1585 33.4 36.4329 33.4 35.7001V33.2201H29.68ZM43.32 51.2001C44.7999 51.2001 46.2192 50.6122 47.2656 49.5658C48.3121 48.5193 48.9 47.1 48.9 45.6201C48.9 44.1402 48.3121 42.7209 47.2656 41.6745C46.2192 40.628 44.7999 40.0401 43.32 40.0401C41.8401 40.0401 40.4208 40.628 39.3743 41.6745C38.3279 42.7209 37.74 44.1402 37.74 45.6201C37.74 47.1 38.3279 48.5193 39.3743 49.5658C40.4208 50.6122 41.8401 51.2001 43.32 51.2001ZM25.34 52.4401H27.82C28.3133 52.4401 28.7864 52.6361 29.1352 52.9849C29.484 53.3337 29.68 53.8068 29.68 54.3001V56.7801H33.4V54.3001C33.4 52.8202 32.8121 51.4009 31.7656 50.3545C30.7192 49.308 29.2999 48.7201 27.82 48.7201H25.34V52.4401ZM56.96 54.3001C56.96 53.8068 57.156 53.3337 57.5048 52.9849C57.8536 52.6361 58.3267 52.4401 58.82 52.4401H61.3V48.7201H58.82C57.3401 48.7201 55.9208 49.308 54.8743 50.3545C53.8279 51.4009 53.24 52.8202 53.24 54.3001V56.7801H56.96V54.3001ZM56.96 35.7001V33.2201H53.24V35.7001C53.24 36.4329 53.3843 37.1585 53.6647 37.8355C53.9452 38.5125 54.3562 39.1276 54.8743 39.6458C55.9208 40.6922 57.3401 41.2801 58.82 41.2801H61.3V37.5601H58.82C58.3267 37.5601 57.8536 37.3642 57.5048 37.0153C57.156 36.6665 56.96 36.1934 56.96 35.7001ZM28.1945 63.6001C28.8475 64.7316 29.787 65.6712 30.9185 66.3243C32.05 66.9773 33.3336 67.3208 34.64 67.3201H60.06C61.607 67.3201 63.1388 67.0154 64.568 66.4234C65.9972 65.8314 67.2958 64.9637 68.3897 63.8698C69.4836 62.776 70.3513 61.4773 70.9433 60.0481C71.5353 58.6189 71.84 57.0871 71.84 55.5401V42.5201C71.8404 41.2137 71.4968 39.9303 70.8438 38.7988C70.1908 37.6674 69.2514 36.7278 68.12 36.0746V55.5401C68.12 57.6778 67.2708 59.7279 65.7593 61.2394C64.2477 62.7509 62.1976 63.6001 60.06 63.6001H28.1945Z" fill="#959595"/>
</g>
<defs>
<filter id="filter0_b_129_169" x="-20" y="-20" width="137" height="137" filterUnits="userSpaceOnUse" color-interpolation-filters="sRGB">
<feFlood flood-opacity="0" result="BackgroundImageFix"/>
<feGaussianBlur in="BackgroundImageFix" stdDeviation="10"/>
<feComposite in2="SourceAlpha" operator="in" result="effect1_backgroundBlur_129_169"/>
<feBlend mode="normal" in="SourceGraphic" in2="effect1_backgroundBlur_129_169" result="shape"/>
</filter>
<clipPath id="clip0_129_169">
<rect width="62" height="62" fill="white" transform="translate(21 14)"/>
</clipPath>
</defs>
</svg>
