<svg width="34" height="35" viewBox="0 0 34 35" fill="none" xmlns="http://www.w3.org/2000/svg">
<path d="M8.50008 3.0332C6.92758 3.0332 5.66675 4.29404 5.66675 5.86654V28.5332C5.66675 29.2846 5.96526 30.0053 6.49661 30.5367C7.02797 31.068 7.74863 31.3665 8.50008 31.3665H14.1667V28.6607L17.1276 25.6999H8.50008V22.8665H19.9609L22.7942 20.0332H8.50008V17.1999H25.6276L28.3334 14.494V11.5332L19.8334 3.0332H8.50008ZM18.4167 5.1582L26.2084 12.9499H18.4167V5.1582ZM28.5459 18.6165C28.4411 18.6142 28.3368 18.6331 28.2395 18.6721C28.1421 18.711 28.0536 18.7692 27.9792 18.8432L26.5342 20.2882L29.4951 23.2349L30.9401 21.804C31.2376 21.4924 31.2376 20.9824 30.9401 20.6849L29.0984 18.8432C29.0262 18.7703 28.9401 18.7127 28.8452 18.6737C28.7503 18.6348 28.6485 18.6153 28.5459 18.6165ZM25.6984 21.124L17.0001 29.8365V32.7832H19.9467L28.6592 24.0707L25.6984 21.124Z" fill="#FF8811"/>
</svg>
