<svg width="31" height="32" viewBox="0 0 31 32" fill="none" xmlns="http://www.w3.org/2000/svg">
<g clip-path="url(#clip0_93_2078)">
<path d="M30.3431 15.765C30.3431 7.29132 23.4736 0.421875 14.9999 0.421875C6.52618 0.421875 -0.343262 7.29132 -0.343262 15.765C-0.343262 22.9604 4.61074 28.9982 11.2936 30.6565V20.4539H8.12985V15.765H11.2936V13.7447C11.2936 8.52246 13.6571 6.10192 18.7841 6.10192C19.7563 6.10192 21.4336 6.29279 22.1198 6.48304V10.7331C21.7577 10.695 21.1286 10.676 20.3473 10.676C17.8316 10.676 16.8595 11.6291 16.8595 14.1068V15.765H21.8712L21.0101 20.4539H16.8595V30.9959C24.4556 30.0784 30.3431 23.6097 30.3431 15.765Z" fill="white"/>
</g>
<defs>
<clipPath id="clip0_93_2078">
<rect width="30.6863" height="30.6863" fill="white" transform="translate(0 0.444336)"/>
</clipPath>
</defs>
</svg>
