<svg width="1440" height="805" viewBox="0 0 1440 805" fill="none" xmlns="http://www.w3.org/2000/svg">
<path d="M949.004 552.894L936.362 566.866L923.721 574.185V591.483L917.733 604.125V617.431L923.721 624.75H936.362L943.681 617.431V604.125L952.33 582.834L956.322 566.866V552.894L952.33 546.241L949.004 552.894Z" stroke="white" stroke-opacity="0.2" stroke-width="2.1" stroke-dasharray="24.15 24.15"/>
<path d="M616.339 302.064L624.988 298.738L634.968 284.1V274.12L644.948 268.132L658.255 258.818L672.227 264.806L692.852 252.164L706.824 250.168L722.792 252.164L736.764 246.177L742.752 258.818L736.764 264.806L752.067 274.12H760.716L770.696 284.1L784.002 288.758L790.656 284.1V274.12H805.293L822.592 284.1H839.89H855.858L864.507 302.064L868.499 312.044L875.818 326.016L881.141 339.323V349.968L890.455 357.952L895.778 373.92L906.423 381.239L915.738 392.549L919.73 403.195L927.049 407.852L939.025 410.513L961.646 403.195V419.828L951.666 436.461L942.351 451.098L929.71 463.074L915.738 479.042L903.762 492.349L895.778 506.986L899.77 524.95L906.423 533.599V548.237V561.543L899.77 572.854L887.129 576.181L881.141 584.83L872.491 594.81L875.818 611.443L872.491 618.762L863.177 625.415L858.52 631.403V638.056L856.524 646.04L840.556 665.335L825.918 675.315L813.277 681.303L806.624 675.315L797.974 681.303H786.664L782.006 675.315V665.335L776.684 653.359L766.039 640.718V631.403L762.047 611.443L756.059 594.81L747.409 581.503V569.527L752.067 558.217L756.059 544.91V533.599V524.95L752.067 514.97L747.409 500.333L742.752 495.01L736.764 485.696V475.05V459.082V451.098L727.449 443.78H714.808L709.485 436.461L700.836 431.804L689.525 436.461L675.554 440.453H658.255L640.956 443.78L629.646 440.453L613.012 427.146L608.355 419.828L602.367 410.513L597.045 403.195L593.718 398.537V389.888L589.061 383.235L593.718 375.251V361.279V354.625V346.641V337.327L602.367 326.016L608.355 312.044L616.339 302.064Z" stroke="white" stroke-opacity="0.2" stroke-width="2.1" stroke-dasharray="24.15 24.15"/>
<path d="M1419.39 731.202L1424.05 719.892H1434.7L1440.02 723.884L1434.7 731.202L1424.05 735.194L1419.39 731.202Z" stroke="white" stroke-opacity="0.2" stroke-width="2.1" stroke-dasharray="24.15 24.15"/>
<path d="M1354.86 667.331L1338.22 674.649H1316.27L1306.95 679.972L1296.97 685.295L1292.31 679.972V674.649L1296.97 660.012V640.052V619.427L1303.63 607.451L1327.58 593.479H1338.22L1354.86 576.846L1359.51 570.858L1368.16 561.543L1382.13 556.886L1391.45 561.543L1396.11 554.89L1404.76 548.902L1420.72 544.245C1435.09 542.116 1433.81 548.237 1431.37 551.563L1424.05 561.543L1431.37 566.866L1448.67 576.846L1460.64 561.543V551.563L1467.96 540.918L1471.29 551.563L1479.94 561.543V579.507L1485.93 587.491L1495.91 607.451L1505.89 619.427V631.403L1500.56 653.359L1490.58 667.331L1479.94 674.649L1471.29 691.283L1460.64 699.932H1450.66L1446.01 704.589L1439.35 708.581L1431.37 704.589H1420.72L1412.74 699.932V691.283L1409.41 685.295L1402.76 674.649L1396.11 679.972L1388.12 667.331L1379.47 664.004H1372.15L1354.86 667.331Z" stroke="white" stroke-opacity="0.2" stroke-width="2.1" stroke-dasharray="24.15 24.15"/>
<path d="M388.132 799.731L370.168 789.751H357.527L340.228 782.433L331.579 768.461L320.268 752.493L324.926 746.505V737.855L320.268 729.206L310.954 717.23V705.254L307.627 673.318L302.97 644.709V618.096V593.479L289.663 578.176L273.03 567.531L262.385 552.893L251.739 535.595L242.425 513.639L235.106 510.312V495.01L242.425 489.022L235.106 480.372L242.425 466.4L251.739 451.763L256.397 445.11V435.795L251.739 419.827V415.17L256.397 419.827L262.385 415.17L269.038 407.186H276.356L283.01 398.537H289.663L292.99 410.513L289.663 419.827L283.01 410.513L297.647 401.863H307.627L313.615 407.186L324.26 410.513L336.902 407.186L344.886 410.513L360.188 429.142L366.841 435.795H377.487L392.789 440.452L399.443 451.763L404.1 461.743V469.727L412.084 474.384L419.403 480.372H428.717L433.375 483.699L442.689 489.022H456.661L467.972 495.01L480.613 502.328L487.932 505.655V513.639V524.949L477.286 542.248L467.972 552.893V567.531V588.156L456.661 607.451L447.346 610.777L433.375 618.096L423.395 627.41V636.725L419.403 654.689L408.092 673.318L399.443 681.302H391.459H384.14L388.132 688.621V699.266L379.483 705.254H370.168V717.23H357.527V724.549L362.849 729.206L357.527 741.182V746.505V752.493L362.849 760.477V768.461L357.527 776.445L362.849 782.433L357.527 799.731H366.841L374.825 803.058L388.132 799.731Z" stroke="white" stroke-opacity="0.2" stroke-width="2.1" stroke-dasharray="24.15 24.15"/>
<path d="M1501.23 522.288L1515.87 536.26L1511.21 540.917L1501.23 536.26L1489.92 526.28L1483.26 522.288H1475.95L1471.29 529.607L1457.98 526.28L1450.66 522.288H1444.01L1450.66 512.308L1444.01 506.32L1425.38 499.002L1415.4 495.675V489.022L1408.75 477.711H1425.38V483.034L1432.7 495.675L1439.35 489.022L1450.66 483.034L1462.64 489.022L1483.26 495.675L1497.24 506.32L1501.23 522.288Z" stroke="white" stroke-opacity="0.2" stroke-width="2.1" stroke-dasharray="24.15 24.15"/>
<path d="M1312.94 447.106L1299.63 457.086L1286.33 463.74L1288.99 479.042L1295.64 489.688L1312.94 496.341H1326.25V489.688L1336.23 475.716L1340.22 470.393V461.078L1336.23 453.094L1340.22 441.784L1336.23 435.13H1326.25L1312.94 447.106Z" stroke="white" stroke-opacity="0.2" stroke-width="2.1" stroke-dasharray="24.15 24.15"/>
<path d="M1302.96 512.309L1317.6 520.958L1310.28 524.95L1295.64 520.958H1284.33H1271.02L1267.7 512.309H1279.01H1290.32H1302.96Z" stroke="white" stroke-opacity="0.2" stroke-width="2.1" stroke-dasharray="24.15 24.15"/>
<path d="M1268.36 491.683V501.663C1268.36 509.647 1259.05 508.538 1254.39 506.986L1245.08 497.006L1236.43 478.377L1223.12 459.082L1211.81 448.437V439.122L1233.77 448.437L1240.42 459.082L1254.39 469.062V475.715L1268.36 491.683Z" stroke="white" stroke-opacity="0.2" stroke-width="2.1" stroke-dasharray="24.15 24.15"/>
<path d="M1340.22 378.577L1343.55 365.27C1344.88 359.948 1348.98 363.053 1350.86 365.27V378.577L1358.18 384.565L1366.17 397.206L1377.48 410.513L1382.13 423.154V437.792H1372.82L1366.17 430.473L1358.18 413.84L1350.86 397.206L1340.22 378.577Z" stroke="white" stroke-opacity="0.2" stroke-width="2.1" stroke-dasharray="24.15 24.15"/>
<path d="M1242.42 453.76L1236.43 435.796L1225.12 418.497V397.872L1233.1 405.856V414.505L1236.43 421.824L1242.42 429.143L1253.73 435.796L1258.38 447.107V463.074H1253.73L1242.42 453.76Z" stroke="white" stroke-opacity="0.2" stroke-width="2.1" stroke-dasharray="24.15 24.15"/>
<path d="M1185.2 348.637L1179.21 337.327L1158.58 340.653L1153.93 353.96L1143.28 361.279L1123.32 379.908L1119.99 390.553V411.178C1118.4 423.953 1109.57 421.824 1105.36 419.162L1093.38 395.21L1078.74 361.279V344.645H1070.09H1060.78V334H1050.8L1039.49 318.032L1032.17 324.02L1013.54 318.032H996.908L986.928 310.048L963.641 307.387L952.996 294.745L945.677 288.758L941.02 294.745L949.004 304.06L952.996 318.032H963.641L970.96 327.347L982.936 318.032L989.589 324.02L1003.56 334V344.645L992.916 361.279L978.944 367.932L963.641 376.581L949.004 384.565L937.693 395.21H923.721L917.068 384.565V372.589L909.749 361.279L897.108 348.637V337.327L877.148 314.04L871.16 298.072L863.841 304.06L855.857 282.104H867.833L871.16 266.136V251.499L859.849 255.491L845.212 251.499H829.244L820.595 234.2V228.212H812.611L804.627 234.2L808.619 243.515L804.627 251.499L795.312 246.842L798.639 240.188L787.328 234.2L782.671 216.902L770.695 209.583L753.396 197.607C745.945 190.688 748.074 198.273 750.07 202.93L758.719 212.91C765.594 218.011 778.28 228.212 774.022 228.212C769.764 228.212 770.03 238.414 770.695 243.515L758.719 228.212L740.09 212.91L730.775 206.257L714.142 212.91H704.827L698.839 223.555L684.867 234.2V246.842L668.234 251.499H652.932L640.956 243.515L645.613 212.91H672.891L678.879 206.257V192.285L668.234 180.309L684.867 176.982L698.839 168.998L717.469 154.361H724.787L730.775 148.373V135.731L738.094 129.743V138.393L746.743 135.731V126.417L740.09 121.759L730.775 126.417L720.795 121.759V104.461L750.07 82.505L770.695 67.2024L787.328 57.8877H815.938L833.236 67.2024L859.849 70.529C868.366 77.4485 863.398 81.3961 859.849 82.505H849.204L833.236 77.1823L849.204 90.4889H859.849L867.833 82.505L877.148 77.1823L881.14 70.529L892.451 77.1823L909.749 70.529H932.37L955.657 67.2024H970.294L962.31 57.8877L965.637 51.2344H979.609L988.924 57.8877L1002.9 51.2344L1013.54 44.5811H1028.18V37.2625L1050.13 31.9398H1064.11L1071.42 26.6172H1084.07L1096.71 31.9398H1115.34L1119.99 37.2625L1115.34 44.5811L1139.95 47.9078H1145.28H1157.25H1168.56H1189.85L1213.81 57.8877H1227.78H1239.09L1242.41 47.9078L1264.37 51.2344L1290.32 57.8877H1312.94H1328.24L1345.54 67.2024H1378.14L1384.13 63.2104H1400.1L1424.72 67.2024L1446.67 73.8557L1460.64 79.1783H1475.95L1485.26 89.1583H1465.97L1455.99 82.505L1446.67 89.1583L1460.64 95.8116V103.13L1446.67 113.11H1432.7C1418.86 116.836 1421.61 123.09 1424.72 125.751L1436.03 130.409L1439.35 147.707V165.671H1432.7L1415.4 147.707L1404.09 130.409L1409.41 108.453L1404.09 103.13L1396.11 108.453H1387.46H1378.14V119.763H1362.17H1338.22L1328.24 125.751L1321.59 141.719L1332.23 147.707H1342.88L1357.52 153.695H1365.5L1378.14 165.671L1387.46 174.986V182.305L1391.45 195.611L1384.13 191.619L1378.14 182.305L1368.83 168.998H1365.5L1368.83 182.305V195.611L1362.17 211.579H1351.53L1345.54 216.902L1342.88 224.886V230.874L1345.54 237.527L1357.52 246.176L1362.17 255.491L1357.52 262.81H1345.54L1342.88 250.834L1328.24 240.854L1321.59 230.874C1313.07 235.664 1310.06 232.87 1309.61 230.874L1301.63 224.886L1290.32 237.527L1301.63 246.176H1309.61L1321.59 250.834L1306.29 260.814L1321.59 274.786L1328.24 284.766L1332.23 298.737L1328.24 316.701L1321.59 330.008L1306.29 337.327L1290.32 340.653L1281.67 348.637L1273.02 340.653L1264.37 346.641L1260.38 357.287L1273.02 372.589L1281.67 387.226V403.86L1273.02 411.178L1267.03 419.162H1260.38V411.178L1249.07 403.86L1235.76 395.21H1231.1V403.86L1224.45 395.21L1219.13 379.908L1213.81 372.589L1207.15 376.581H1200.5V367.932L1195.84 357.287L1185.2 348.637Z" stroke="white" stroke-opacity="0.2" stroke-width="2.1" stroke-dasharray="24.15 24.15"/>
<path d="M1373.48 279.443L1370.16 270.128L1372.15 264.14L1378.14 258.152H1386.13L1395.44 252.164L1404.76 241.519L1400.76 232.87L1393.44 218.898V210.249V200.269L1402.09 206.257L1414.07 210.249L1410.74 216.902H1402.09V226.882H1408.08L1414.07 236.196V243.515L1416.73 252.164V262.81H1404.76L1397.44 270.128L1389.45 268.798H1383.46L1378.14 266.136L1374.82 268.798L1380.14 274.786L1378.14 282.77L1373.48 279.443Z" stroke="white" stroke-opacity="0.2" stroke-width="2.1" stroke-dasharray="24.15 24.15"/>
<path d="M955.658 254.825L939.69 244.18V228.212L923.057 211.579V202.264L939.69 186.962L952.331 196.942L947.009 202.264H939.69V211.579L952.331 217.567H960.981L965.638 224.886L955.658 228.212L960.981 237.527L965.638 247.507L955.658 254.825Z" stroke="white" stroke-opacity="0.2" stroke-width="2.1" stroke-dasharray="24.15 24.15"/>
<path d="M852.532 221.559L837.23 226.882L827.915 213.575L831.907 201.599L845.214 190.954L852.532 201.599H863.178V190.954H875.819V201.599L887.129 208.918L897.775 221.559L887.129 226.882L870.496 221.559H852.532Z" stroke="white" stroke-opacity="0.2" stroke-width="2.1" stroke-dasharray="24.15 24.15"/>
<path d="M682.872 139.724L694.182 156.357L698.84 160.349L694.182 166.337L678.215 170.994H665.573L669.565 160.349V156.357L678.215 147.042L669.565 139.724V133.736V127.082H678.215L682.872 139.724Z" stroke="white" stroke-opacity="0.2" stroke-width="2.1" stroke-dasharray="24.15 24.15"/>
<path d="M646.279 149.038L656.925 144.381C665.441 140.655 663.578 145.934 661.582 149.038L656.925 159.018L646.279 164.341V149.038Z" stroke="white" stroke-opacity="0.2" stroke-width="2.1" stroke-dasharray="24.15 24.15"/>
<path d="M599.706 89.1583L614.343 84.501H630.977L638.295 89.1583L623.658 97.8076H607.69L599.706 89.1583Z" stroke="white" stroke-opacity="0.2" stroke-width="2.1" stroke-dasharray="24.15 24.15"/>
<path d="M477.951 83.8355L484.604 73.1902C493.652 69.4643 493.697 61.8795 492.588 58.5529L484.604 43.9156L469.967 31.9396H458.656L447.345 27.2823V19.9637H469.967L484.604 12.6451L505.229 8.65307L537.83 12.6451L557.79 5.32642H596.38H623.658L639.626 12.6451L629.646 27.2823L623.658 38.593L611.017 43.9156L601.037 49.9036L611.017 58.5529L601.037 63.8755L582.408 69.8635L569.101 73.1902L557.79 77.8475L537.83 83.8355L519.201 93.8154L505.229 113.11H492.588L477.951 102.465V83.8355Z" stroke="white" stroke-opacity="0.2" stroke-width="2.1" stroke-dasharray="24.15 24.15"/>
<path d="M406.094 15.9719L393.453 27.2826L409.421 33.2705L422.062 27.2826L438.03 21.9599L467.305 15.9719L486.599 2L452.002 5.99198H428.715V15.9719H422.062H406.094Z" stroke="white" stroke-opacity="0.2" stroke-width="2.1" stroke-dasharray="24.15 24.15"/>
<path d="M374.824 45.2466H361.517L348.211 52.5652L361.517 60.5492H374.824H390.127L402.102 75.1865V79.8438H390.127L382.143 89.1584L390.127 99.1384L406.094 103.796L416.074 94.4811V84.5011H421.397C436.3 88.2269 436.034 82.9487 434.038 79.8438L426.054 69.1985L416.074 57.2225L406.094 52.5652H398.111L390.127 48.5732L374.824 45.2466Z" stroke="white" stroke-opacity="0.2" stroke-width="2.1" stroke-dasharray="24.15 24.15"/>
<path d="M233.11 40.5896L223.13 45.2469L211.154 49.9042L215.146 57.2229L223.13 49.9042H236.436L241.759 57.2229L233.11 67.8682H245.086H253.07H263.715L275.691 65.2068L289.663 63.2108V57.2229V49.9042H285.006H279.018L273.03 45.2469L266.376 49.9042L257.727 45.2469L245.086 40.5896H233.11Z" stroke="white" stroke-opacity="0.2" stroke-width="2.1" stroke-dasharray="24.15 24.15"/>
<path d="M421.397 174.321L434.038 182.305L421.397 186.297H408.756L402.768 182.305L408.756 177.648L421.397 166.337V174.321Z" stroke="white" stroke-opacity="0.2" stroke-width="2.1" stroke-dasharray="24.15 24.15"/>
<path d="M292.988 242.184L316.275 224.22L330.912 219.563L340.226 208.252L356.194 199.603H362.182V208.252H372.162L387.465 199.603L372.162 192.95L377.485 178.978H366.174L372.162 168.333H390.792H405.429L420.066 161.014L430.046 151.699L420.066 148.373L412.748 137.727L408.756 115.106L390.792 125.086L384.138 115.106V107.788L362.182 101.134L350.872 107.788L344.218 121.759V131.074L330.912 143.05L319.601 148.373V157.022L309.621 165.006L302.968 157.022L306.96 141.054L292.988 137.727L284.339 131.074L271.032 121.759L279.681 107.788L297.645 101.134L309.621 94.4809L324.924 89.8236L334.239 84.501L350.872 89.8236L346.88 98.4729L330.912 94.4809L340.226 79.1783H356.194L366.174 71.8597V64.541H356.194L340.226 71.8597L334.239 64.541L330.912 53.8958L319.601 58.5531V64.541L309.621 71.8597V64.541H302.968V71.8597H292.988L279.681 75.1863L271.032 71.8597L255.064 75.1863V79.1783L237.1 75.1863L218.471 64.541H197.18H179.882L152.603 71.8597L133.974 64.541L88.0661 58.5531H68.7716L42.8237 64.541L34.1744 68.533C29.9606 68.533 22.3315 70.6621 25.5251 79.1783L14.8798 84.501H1.57315C0.242493 86.497 -0.68897 91.2873 6.23047 94.4809L-3.7495 101.134H-15.7254L-21.7134 111.78L-30.3627 115.106L-21.7134 121.759L-45 141.054L-3.7495 125.086L18.8717 115.106H25.5251L46.8156 107.788L65.4449 115.106L79.4168 125.086L86.0701 133.735C83.8524 141.719 79.4168 159.816 79.4168 168.333C91.3928 168.333 99.3768 180.974 92.7235 183.635C87.4008 185.764 74.5378 200.934 68.7716 208.252L53.4689 228.878L58.1263 263.475L68.7716 278.112V290.754L73.4289 309.383L79.4168 323.355L86.0701 331.339V309.383L79.4168 296.741V286.762H86.0701V302.064L96.7154 318.697L109.357 338.657V353.96L138.631 372.589H165.245L175.224 384.565L192.523 391.218H199.176L205.164 402.529L217.14 417.832L233.774 426.481L246.415 417.832H233.774L220.467 402.529V377.247H205.164L199.176 372.589L205.164 350.633C207.604 347.085 209.156 341.053 195.85 345.311L186.535 357.952L171.232 363.275L160.587 353.96L153.269 338.657L160.587 314.04L165.245 302.064L186.535 290.754L205.164 296.741L220.467 286.762L230.447 290.754L242.423 296.741V314.04L246.415 318.697L255.064 314.04V302.064L249.742 286.762L262.383 278.112L273.028 269.463L289.661 263.475V248.838L292.988 242.184Z" stroke="white" stroke-opacity="0.2" stroke-width="2.1" stroke-dasharray="24.15 24.15"/>
<path d="M297.647 362.61H279.017L284.34 351.964H290.993L309.623 355.956L297.647 362.61Z" stroke="white" stroke-opacity="0.2" stroke-width="2.1" stroke-dasharray="24.15 24.15"/>
<path d="M251.739 332.669H229.783L235.771 337.326L247.082 343.314L257.062 350.633L277.687 347.306L271.034 343.314L251.739 332.669Z" stroke="white" stroke-opacity="0.2" stroke-width="2.1" stroke-dasharray="24.15 24.15"/>
<path d="M242.422 192.95H261.051L249.075 202.93L242.422 217.567L245.749 223.555L253.733 217.567L261.051 199.603H273.027V210.248L286.999 202.93V192.95H279.681L273.027 188.958L266.374 181.639H249.075L242.422 192.95Z" stroke="white" stroke-opacity="0.2" stroke-width="2.1" stroke-dasharray="24.15 24.15"/>
<path d="M358.854 35.9318L391.455 41.9198L398.774 35.9318H379.479L367.504 29.9438L358.854 35.9318Z" stroke="white" stroke-opacity="0.2" stroke-width="2.1" stroke-dasharray="24.15 24.15"/>
<path d="M394.784 9.98389L390.127 19.2985H380.812L371.497 15.9719L380.812 9.98389H394.784Z" stroke="white" stroke-opacity="0.2" stroke-width="2.1" stroke-dasharray="24.15 24.15"/>
<path d="M762.044 140.389L768.032 129.078L772.024 121.094L775.351 115.106L768.032 107.122V99.8035L782.004 95.1462L790.654 81.8396L799.968 89.1582L787.327 99.8035L790.654 111.779H813.275L821.924 115.106L813.275 121.094H799.968V129.078H790.654V140.389L782.004 146.377H775.351L762.044 151.034L755.391 146.377H741.419L750.068 140.389H762.044Z" stroke="white" stroke-opacity="0.2" stroke-width="2.1" stroke-dasharray="24.15 24.15"/>
<path d="M1340.22 491.018L1346.21 475.716C1343.01 470.925 1347.54 466.179 1350.2 464.405C1350.2 461.211 1367.5 463.074 1376.15 464.405C1376.15 475.05 1363.73 471.502 1357.52 468.397L1352.86 473.054L1354.86 479.708H1364.84L1357.52 485.696L1361.51 495.01L1357.52 499.667L1352.86 491.018L1350.2 495.01V506.986L1340.22 504.99V491.018Z" stroke="white" stroke-opacity="0.2" stroke-width="2.1" stroke-dasharray="24.15 24.15"/>
</svg>
