<svg width="114" height="38" viewBox="0 0 114 38" fill="none" xmlns="http://www.w3.org/2000/svg">
<path d="M62.4793 8.6875V22.8553H64.9488V8.6875H62.4793Z" fill="white"/>
<path fill-rule="evenodd" clip-rule="evenodd" d="M38.7915 26.903V12.6141H40.9175L41.12 13.7675H41.2212C41.8286 12.9774 42.8609 12.4116 44.2981 12.4116C46.9285 12.4116 49.0346 14.5575 49.0346 17.7338C49.0346 20.9101 46.9303 23.056 44.2981 23.056C42.8808 23.056 41.8901 22.4685 41.364 21.8014H41.2628V26.9012H38.7933L38.7915 26.903ZM46.5633 17.7356C46.5633 15.8736 45.3683 14.7003 43.9112 14.7003C42.4541 14.7003 41.2592 15.8736 41.2592 17.7356C41.2592 19.5977 42.4541 20.7709 43.9112 20.7709C45.3683 20.7709 46.5633 19.5977 46.5633 17.7356Z" fill="white"/>
<path fill-rule="evenodd" clip-rule="evenodd" d="M50.2874 17.7338C50.2874 14.637 52.5128 12.4116 55.4885 12.4116C58.4641 12.4116 60.6896 14.637 60.6896 17.7338C60.6896 20.8306 58.4641 23.056 55.4885 23.056C52.5128 23.056 50.2874 20.8089 50.2874 17.7338ZM58.2002 17.7338C58.2002 15.9115 56.9853 14.6985 55.4885 14.6985C53.9916 14.6985 52.7569 15.9133 52.7569 17.7338C52.7569 19.5543 53.9916 20.7492 55.4885 20.7492C56.9853 20.7492 58.2002 19.5561 58.2002 17.7338Z" fill="white"/>
<path d="M74.1162 12.6141H76.7466L72.2939 25.0609C71.8492 26.2956 71.2418 26.903 69.6418 26.903H67.2537V24.6161H69.2785C69.6437 24.6161 69.8443 24.4336 69.9673 24.1298L70.2095 23.4628L66.0407 12.6141H68.671L71.3231 19.7188H71.7281L74.1162 12.6141Z" fill="white"/>
<path fill-rule="evenodd" clip-rule="evenodd" d="M79.7277 23.3615H77.2184C77.2799 24.8385 78.6159 27.1055 82.076 27.1055C85.1728 27.1055 86.9951 25.3031 86.9951 22.5914V12.6141H84.8492L84.6467 13.7277H84.5455C83.9182 12.9576 82.9257 12.4116 81.5698 12.4116C78.9395 12.4116 76.9147 14.4147 76.9147 17.3289C76.9147 20.243 78.9395 22.2678 81.5698 22.2678C82.866 22.2678 83.8784 21.7417 84.4244 21.1542H84.5256V22.5914C84.5256 24.0087 83.553 24.9397 82.076 24.9397C80.496 24.9397 79.8289 24.0286 79.7277 23.3615ZM81.9549 14.6189C83.3921 14.6189 84.5256 15.7326 84.5256 17.3307C84.5256 18.9487 83.3722 20.0623 81.9549 20.0623C80.5376 20.0623 79.4041 18.9288 79.4041 17.3307C79.4041 15.7326 80.5177 14.6189 81.9549 14.6189Z" fill="white"/>
<path fill-rule="evenodd" clip-rule="evenodd" d="M88.7107 17.7338C88.7107 14.637 90.9361 12.4116 93.9117 12.4116C96.8874 12.4116 99.1128 14.637 99.1128 17.7338C99.1128 20.8306 96.8874 23.056 93.9117 23.056C90.9361 23.056 88.7107 20.8089 88.7107 17.7338ZM96.6235 17.7338C96.6235 15.9115 95.4086 14.6985 93.9117 14.6985C92.4149 14.6985 91.1801 15.9133 91.1801 17.7338C91.1801 19.5543 92.4149 20.7492 93.9117 20.7492C95.4086 20.7492 96.6235 19.5561 96.6235 17.7338Z" fill="white"/>
<path d="M100.832 22.8535V22.8553L100.83 22.8535H100.832Z" fill="white"/>
<path d="M100.832 22.8535H103.3V17.0251C103.3 15.7506 104.312 14.7581 105.587 14.7581C106.861 14.7581 107.792 15.7091 107.792 17.0251V22.8535H110.262V16.7015C110.262 14.1109 108.562 12.4116 106.214 12.4116C104.677 12.4116 103.665 13.1203 103.26 13.5849H103.159L102.956 12.6141H100.832V22.8535Z" fill="white"/>
<path d="M25.5022 23.7158L31.5728 20.2105C31.8946 20.0242 32.0935 19.679 32.0935 19.3084V12.2976C32.0935 11.927 31.8946 11.5818 31.5728 11.3955L25.5022 7.8902C25.1804 7.70399 24.7809 7.7058 24.4609 7.8902L18.3902 11.3955C18.0685 11.5818 17.8696 11.927 17.8696 12.2976V24.8258L13.6122 27.2826L9.35478 24.8258V19.9104L13.6122 17.4535L16.4197 19.0751V15.7777L14.1328 14.4562C13.9756 14.3658 13.7948 14.317 13.6122 14.317C13.4296 14.317 13.2488 14.3658 13.0915 14.4562L7.02089 17.9615C6.6991 18.1477 6.50024 18.493 6.50024 18.8636V25.8743C6.50024 26.2449 6.6991 26.5902 7.02089 26.7764L13.0915 30.2818C13.4133 30.4662 13.811 30.4662 14.1328 30.2818L20.2035 26.7764C20.5253 26.5902 20.7241 26.2449 20.7241 25.8743V13.3462L20.8001 13.3028L24.9797 10.8894L29.2371 13.3462V18.2616L24.9797 20.7184L22.1758 19.1005V22.3979L24.4591 23.7158C24.7809 23.9002 25.1804 23.9002 25.5004 23.7158H25.5022Z" fill="white"/>
</svg>
