<svg width="97" height="97" viewBox="0 0 97 97" fill="none" xmlns="http://www.w3.org/2000/svg">
<g filter="url(#filter0_b_129_180)">
<rect x="1" y="1" width="95" height="95" rx="47.5" fill="white" fill-opacity="0.1"/>
<rect x="1" y="1" width="95" height="95" rx="47.5" stroke="white" stroke-opacity="0.12" stroke-width="2"/>
</g>
<g clip-path="url(#clip0_129_180)">
<path d="M33.2109 33.8798C31.8984 33.4418 31.1953 32.0264 31.6328 30.7126C32.0703 29.3988 33.4844 28.695 34.7969 29.1329L43.625 32.0811C44.7031 30.2356 46.7109 29 49 29C52.4531 29 55.25 31.7996 55.25 35.2561C55.25 35.4907 55.2344 35.7175 55.2109 35.9443L64.7891 39.1427C66.1016 39.5806 66.8047 40.9961 66.3672 42.3099C65.9297 43.6236 64.5156 44.3275 63.2031 43.8895L52.625 40.3548C52.2734 40.6051 51.8984 40.8162 51.5 40.9961V66.5366C51.5 67.9208 50.3828 69.0391 49 69.0391H34C32.6172 69.0391 31.5 67.9208 31.5 66.5366C31.5 65.1525 32.6172 64.0342 34 64.0342H46.5V40.9883C44.8594 40.2688 43.5937 38.8768 43.0469 37.1564L33.2109 33.8719V33.8798ZM39.6562 51.522L34 41.8094L28.3437 51.522H39.6562ZM34 59.0293C29.0859 59.0293 25 56.3705 24.1562 52.8592C23.9531 51.999 24.2344 51.1153 24.6797 50.349L32.1172 37.5865C32.5078 36.914 33.2266 36.5073 34 36.5073C34.7734 36.5073 35.4922 36.9218 35.8828 37.5865L43.3203 50.349C43.7656 51.1153 44.0469 51.999 43.8437 52.8592C43 56.3705 38.9141 59.0293 34 59.0293ZM63.9062 51.8191L58.25 61.5317H69.5703L63.9062 51.8191ZM73.75 62.869C72.9062 66.3802 68.8203 69.0391 63.9062 69.0391C58.9922 69.0391 54.9062 66.3802 54.0625 62.869C53.8594 62.0088 54.1406 61.1251 54.5859 60.3587L62.0234 47.5963C62.4141 46.9237 63.1328 46.5171 63.9062 46.5171C64.6797 46.5171 65.3984 46.9316 65.7891 47.5963L73.2266 60.3587C73.6719 61.1251 73.9531 62.0088 73.75 62.869Z" fill="white" fill-opacity="0.6"/>
</g>
<defs>
<filter id="filter0_b_129_180" x="-20" y="-20" width="137" height="137" filterUnits="userSpaceOnUse" color-interpolation-filters="sRGB">
<feFlood flood-opacity="0" result="BackgroundImageFix"/>
<feGaussianBlur in="BackgroundImageFix" stdDeviation="10"/>
<feComposite in2="SourceAlpha" operator="in" result="effect1_backgroundBlur_129_180"/>
<feBlend mode="normal" in="SourceGraphic" in2="effect1_backgroundBlur_129_180" result="shape"/>
</filter>
<clipPath id="clip0_129_180">
<rect width="50" height="40.0391" fill="white" transform="translate(24 29)"/>
</clipPath>
</defs>
</svg>
