<svg width="51" height="51" viewBox="0 0 51 51" fill="none" xmlns="http://www.w3.org/2000/svg">
<circle cx="25.3319" cy="25.5443" r="25.0843" fill="white" fill-opacity="0.1"/>
<g clip-path="url(#clip0_93_2148)">
<path d="M31.7667 18.5034C30.9231 17.6515 29.9196 16.9747 28.8136 16.5118C27.7077 16.0489 26.5212 15.8091 25.3223 15.8062C24.1234 15.8032 22.9358 16.0372 21.8276 16.4946C20.7194 16.9521 19.7125 17.6239 18.8648 18.4717C18.017 19.3194 17.3451 20.3263 16.8877 21.4345C16.4303 22.5427 16.1963 23.7304 16.1992 24.9293C16.2022 26.1282 16.442 27.3146 16.9049 28.4206C17.3678 29.5265 18.0446 30.5301 18.8965 31.3736C19.7401 32.2256 20.7436 32.9024 21.8496 33.3653C22.9555 33.8282 24.142 34.068 25.3409 34.0709C26.5398 34.0739 27.7274 33.8399 28.8356 33.3825C29.9438 32.925 30.9507 32.2531 31.7985 31.4054C32.6462 30.5577 33.3181 29.5508 33.7755 28.4426C34.233 27.3344 34.4669 26.1467 34.464 24.9478C34.461 23.7489 34.2212 22.5624 33.7583 21.4565C33.2954 20.3506 32.6186 19.347 31.7667 18.5034ZM17.531 24.9385C17.5307 24.2482 17.6222 23.5608 17.8032 22.8945C18.1014 23.5365 18.5345 24.091 18.8291 24.7496C19.2098 25.5963 20.232 25.3615 20.6833 26.1034C21.0839 26.7619 20.6561 27.5948 20.956 28.2839C21.1737 28.784 21.6873 28.8933 22.0415 29.2589C22.4035 29.6279 22.3958 30.1333 22.4511 30.6143C22.5134 31.1795 22.6146 31.7397 22.7537 32.291C22.7537 32.2951 22.7537 32.2996 22.757 32.3036C19.7168 31.2359 17.531 28.3379 17.531 24.9385ZM25.3316 32.7392C24.896 32.739 24.4611 32.7026 24.0315 32.6303C24.036 32.5202 24.038 32.4174 24.049 32.3459C24.1477 31.6999 24.4711 31.0681 24.9074 30.5846C25.3385 30.1077 25.9292 29.7851 26.2933 29.2439C26.65 28.7157 26.7568 28.0048 26.6098 27.3876C26.3932 26.4759 25.1545 26.1716 24.4865 25.6772C24.1026 25.3928 23.7609 24.9532 23.2567 24.9174C23.0243 24.9012 22.8297 24.9511 22.5994 24.8918C22.3881 24.837 22.2223 24.7232 21.9973 24.7529C21.5768 24.8081 21.3114 25.2575 20.8597 25.1965C20.431 25.1392 19.9894 24.6375 19.8919 24.2292C19.7668 23.7043 20.182 23.534 20.6269 23.4873C20.8125 23.4678 21.021 23.4467 21.1993 23.5149C21.4341 23.6019 21.5451 23.8318 21.7559 23.948C22.1512 24.165 22.2313 23.8184 22.1707 23.4674C22.0801 22.9417 21.9745 22.7276 22.4434 22.3656C22.7684 22.1161 23.0463 21.9357 22.9943 21.4876C22.9634 21.2243 22.8192 21.1053 22.9536 20.8432C23.0556 20.6437 23.3355 20.4638 23.518 20.3447C23.9888 20.0376 25.5352 20.0603 24.9034 19.2006C24.7177 18.9483 24.3752 18.4974 24.0502 18.4356C23.6439 18.3588 23.4635 18.8122 23.1803 19.0121C22.8878 19.2189 22.3182 19.4537 22.0253 19.134C21.6312 18.7037 22.2865 18.5628 22.4316 18.2621C22.4986 18.1219 22.4316 17.9273 22.3186 17.7441C22.4652 17.6823 22.6141 17.6251 22.7655 17.5722C22.8604 17.6423 22.973 17.6845 23.0906 17.6941C23.3624 17.712 23.6187 17.5649 23.856 17.7502C24.1193 17.9533 24.309 18.2101 24.6584 18.2735C24.9964 18.3348 25.3544 18.1378 25.4381 17.7916C25.4888 17.5812 25.4381 17.3589 25.3893 17.1416C26.9088 17.1503 28.3922 17.6054 29.6553 18.4502C29.574 18.4193 29.4769 18.423 29.357 18.4787C29.1104 18.5932 28.761 18.8849 28.7322 19.1742C28.6993 19.5025 29.1836 19.5488 29.4135 19.5488C29.7589 19.5488 30.1087 19.3944 29.9973 18.9955C29.949 18.8224 29.8832 18.6424 29.7771 18.5335C30.032 18.7104 30.2762 18.9022 30.5085 19.108C30.5048 19.1116 30.5011 19.1149 30.4975 19.119C30.2635 19.3627 29.9917 19.5557 29.8316 19.8523C29.7186 20.0611 29.5915 20.1603 29.3627 20.2143C29.2368 20.244 29.093 20.2549 28.9873 20.3394C28.6932 20.571 28.8606 21.1276 29.1393 21.2946C29.4915 21.5055 30.014 21.4063 30.2797 21.1053C30.4873 20.8696 30.6096 20.4605 30.983 20.4609C31.1474 20.4606 31.3053 20.5249 31.4226 20.6401C31.577 20.8002 31.5465 20.9497 31.5794 21.1496C31.6375 21.5046 31.9507 21.3121 32.1413 21.1329C32.2802 21.3801 32.4055 21.6347 32.5167 21.8955C32.3071 22.1974 32.1405 22.5264 31.6363 22.1746C31.3344 21.9637 31.1488 21.6578 30.7697 21.5627C30.4386 21.4815 30.0993 21.566 29.7723 21.6225C29.4005 21.6871 28.9597 21.7155 28.6777 21.9971C28.4051 22.2685 28.2609 22.6317 27.9708 22.9043C27.4097 23.4325 27.1729 24.009 27.5361 24.7557C27.8855 25.4736 28.6164 25.8632 29.405 25.812C30.1798 25.7605 30.9846 25.3111 30.9623 26.4369C30.9541 26.8355 31.0374 27.1113 31.1597 27.4815C31.2731 27.8227 31.2654 28.1535 31.2914 28.5057C31.3161 28.9182 31.3806 29.3273 31.4839 29.7274C30.7557 30.665 29.8228 31.4238 28.7565 31.9457C27.6903 32.4677 26.5188 32.7391 25.3316 32.7392Z" fill="#FF8811"/>
</g>
<defs>
<clipPath id="clip0_93_2148">
<rect width="20.0675" height="20.0675" fill="white" transform="translate(15.2981 15.5103)"/>
</clipPath>
</defs>
</svg>
