<svg width="137" height="38" viewBox="0 0 137 38" fill="none" xmlns="http://www.w3.org/2000/svg">
<path d="M18.4133 18.7395C17.8804 18.2188 17.2402 17.9586 16.492 17.9586H9.07614L9.04986 17.9579L9.0159 17.9554C8.98577 17.9521 8.95661 17.9463 8.92842 17.938C8.89958 17.9295 8.87202 17.9184 8.84542 17.9047C8.82524 17.8944 8.80569 17.8825 8.78678 17.8692C8.76403 17.8532 8.74224 17.8351 8.72141 17.8148C8.62272 17.7191 8.57337 17.6024 8.57337 17.4647V16.8633C8.57337 16.7319 8.62272 16.618 8.72141 16.5221C8.76756 16.4777 8.81755 16.4435 8.8717 16.4196C8.89285 16.4103 8.91464 16.4026 8.93707 16.3964C8.98097 16.3844 9.02743 16.3783 9.07614 16.3783H18.6376C18.6617 16.3783 18.6809 16.3708 18.6959 16.3558L18.7062 16.3437L18.7126 16.3327C18.7165 16.3243 18.7184 16.3156 18.7184 16.3066V14.511C18.7184 14.5047 18.7181 14.4989 18.7171 14.4934C18.7158 14.4876 18.7139 14.4821 18.7116 14.4773C18.7078 14.4693 18.7027 14.4626 18.6959 14.4571C18.6809 14.4452 18.6613 14.4392 18.6376 14.4392H9.07614C8.32215 14.4392 7.68 14.6997 7.15032 15.2204C6.62064 15.7411 6.35596 16.3694 6.35596 17.1056V17.2224C6.35596 17.9646 6.62064 18.5961 7.15032 19.1168C7.68 19.6375 8.32215 19.8977 9.07614 19.8977H16.492C16.5247 19.8977 16.5564 19.9006 16.5872 19.9063C16.6253 19.9134 16.6621 19.925 16.6971 19.941C16.7471 19.9639 16.7938 19.9959 16.8374 20.0369C16.8759 20.0729 16.9069 20.1122 16.9303 20.155C16.9672 20.2224 16.9858 20.2984 16.9858 20.3827V20.9841C16.9858 21.1218 16.9364 21.2371 16.8374 21.3299C16.7387 21.4226 16.6234 21.469 16.492 21.469H6.92153C6.90358 21.469 6.88692 21.4766 6.87218 21.4915C6.85744 21.5065 6.84975 21.5261 6.84975 21.55V23.3456C6.84975 23.3634 6.85744 23.3801 6.87218 23.3948C6.88724 23.4098 6.90358 23.4174 6.92153 23.4174H16.492C17.2402 23.4174 17.8804 23.1556 18.4133 22.6318C18.9459 22.1082 19.2122 21.4782 19.2122 20.742V20.625C19.2122 19.8888 18.9459 19.2603 18.4133 18.7395Z" fill="white"/>
<path d="M34.513 14.4392H32.4391C32.4212 14.4392 32.4045 14.4452 32.3895 14.4571C32.3747 14.4692 32.367 14.487 32.367 14.511V16.7913C32.367 16.9887 32.2651 17.1385 32.062 17.2402L27.9232 18.9549L23.7848 17.2402C23.5813 17.1385 23.4794 16.9889 23.4794 16.7913V14.511C23.4794 14.487 23.4733 14.4692 23.4615 14.4571C23.449 14.4452 23.4313 14.4392 23.4073 14.4392H21.3335C21.3155 14.4392 21.2988 14.4452 21.2841 14.4571C21.2764 14.4633 21.2706 14.4712 21.2668 14.4806C21.2633 14.4894 21.2617 14.4995 21.2617 14.511V17.1235C21.2617 17.5128 21.3693 17.8687 21.585 18.1918C21.8006 18.5151 22.0935 18.7543 22.4649 18.9099L26.81 20.7323V23.3361C26.81 23.3601 26.8174 23.3796 26.8325 23.3946C26.8382 23.4004 26.8446 23.405 26.8517 23.4085C26.8632 23.4142 26.876 23.4171 26.8908 23.4171H28.9646C28.9826 23.4171 28.9989 23.4096 29.014 23.3946C29.029 23.3796 29.0364 23.3603 29.0364 23.3361V20.7326L33.3818 18.9191C33.7526 18.7574 34.0464 18.5165 34.2614 18.1964C34.4771 17.8762 34.5844 17.5217 34.5844 17.1325V14.511C34.5844 14.487 34.5771 14.4692 34.562 14.4571C34.5473 14.4452 34.5309 14.4392 34.513 14.4392Z" fill="white"/>
<path d="M47.8434 14.4392H49.9176C49.9413 14.4392 49.9593 14.4467 49.9718 14.4617C49.9833 14.4767 49.9894 14.4931 49.9894 14.511V23.3451C49.9894 23.3533 49.9881 23.3614 49.9855 23.369C49.9827 23.3779 49.9779 23.3864 49.9718 23.3944C49.9654 23.4022 49.9574 23.4081 49.9477 23.4118L49.9333 23.4157L49.9179 23.4169H46.4524C45.692 23.399 45.0967 23.0878 44.6657 22.4832L40.6436 16.6028C40.5298 16.4532 40.3923 16.3783 40.2308 16.3783H39.3599V23.3451L39.3583 23.3583L39.3554 23.3683L39.3509 23.3768C39.3474 23.3829 39.3429 23.3888 39.3375 23.3944C39.3224 23.4093 39.3057 23.4169 39.2881 23.4169H37.2139C37.1899 23.4169 37.1707 23.4093 37.1556 23.3944C37.1409 23.3796 37.1332 23.363 37.1332 23.3451V14.511C37.1332 14.4931 37.1409 14.4767 37.1556 14.4617C37.1707 14.4467 37.1902 14.4392 37.2139 14.4392H40.6795C41.4392 14.4632 42.0349 14.7775 42.4662 15.3819L46.488 21.2622C46.6017 21.406 46.7392 21.4778 46.901 21.4778H47.772V14.511C47.772 14.4931 47.7777 14.4767 47.7896 14.4617C47.8015 14.4467 47.8197 14.4392 47.8434 14.4392Z" fill="white"/>
<path d="M64.9073 14.4392H52.2036C52.1796 14.4392 52.1616 14.4467 52.1498 14.4617C52.1376 14.4767 52.1318 14.4931 52.1318 14.511V16.3066L52.1331 16.3202L52.1357 16.3301L52.1382 16.337C52.1411 16.3436 52.145 16.3499 52.1498 16.3558C52.1533 16.3602 52.1575 16.364 52.1619 16.3671C52.1658 16.3698 52.1703 16.3721 52.1751 16.3738C52.1834 16.3768 52.193 16.3783 52.2036 16.3783H57.4466V23.3451C57.4466 23.363 57.4523 23.3796 57.4645 23.3944C57.4764 23.4093 57.4943 23.4169 57.5184 23.4169H59.5922C59.6162 23.4169 59.6342 23.4093 59.646 23.3944C59.6579 23.3796 59.664 23.363 59.664 23.3451V16.3783H64.907C64.931 16.3783 64.9502 16.3708 64.9653 16.3558C64.9803 16.3408 64.9877 16.3244 64.9877 16.3066V14.511C64.9877 14.4931 64.9803 14.4767 64.9653 14.4617C64.9509 14.4467 64.9313 14.4392 64.9073 14.4392Z" fill="white"/>
<path d="M78.2377 14.4392H80.3116C80.3353 14.4392 80.3549 14.4467 80.3699 14.4617C80.3763 14.4683 80.3815 14.4751 80.385 14.4821L80.3895 14.4925C80.3914 14.4985 80.3924 14.5047 80.3924 14.511V23.3451C80.3924 23.3539 80.3904 23.3624 80.3869 23.3705L80.3808 23.381L80.3699 23.3944C80.3549 23.4093 80.3353 23.4169 80.3116 23.4169H78.2377C78.2198 23.4169 78.2031 23.4093 78.1884 23.3944C78.1733 23.3796 78.1656 23.363 78.1656 23.3451V19.8977H69.7625V23.3451C69.7625 23.3556 69.76 23.3655 69.7548 23.3751C69.751 23.3818 69.7462 23.3882 69.7401 23.3944C69.7331 23.4014 69.725 23.4068 69.7161 23.4105C69.7058 23.4148 69.6946 23.4169 69.6818 23.4169H67.6079C67.59 23.4169 67.5736 23.4093 67.5586 23.3944C67.5438 23.3796 67.5361 23.363 67.5361 23.3451V14.511C67.5361 14.4931 67.5438 14.4767 67.5586 14.4617C67.5733 14.4467 67.59 14.4392 67.6079 14.4392H69.6818C69.7055 14.4392 69.725 14.447 69.7401 14.4617C69.7468 14.4683 69.752 14.4752 69.7555 14.4824L69.7596 14.4927C69.7616 14.4986 69.7625 14.5047 69.7625 14.511V17.9584H78.1656V14.511C78.1656 14.4931 78.1733 14.4767 78.1884 14.4617C78.2031 14.4467 78.2198 14.4392 78.2377 14.4392Z" fill="white"/>
<path d="M95.6611 14.4392H85.5969C84.8487 14.4392 84.2084 14.6995 83.6759 15.2202C83.143 15.7409 82.8767 16.3694 82.8767 17.1056V20.7415C82.8767 21.4838 83.143 22.1152 83.6759 22.6359C84.2084 23.1566 84.8487 23.4171 85.5969 23.4171H95.6611C95.6787 23.4171 95.6954 23.4096 95.7105 23.3946C95.7252 23.3796 95.7329 23.3632 95.7329 23.3453V21.5498C95.7329 21.5258 95.7252 21.508 95.7105 21.4959C95.6954 21.4841 95.6787 21.478 95.6611 21.478H85.5969C85.4591 21.478 85.3424 21.4302 85.247 21.3344C85.2236 21.3111 85.2031 21.2867 85.1854 21.2612C85.1303 21.1821 85.1031 21.0928 85.1031 20.9933V19.8977H95.6547C95.6784 19.8977 95.6964 19.8902 95.7085 19.8752C95.7201 19.8603 95.7262 19.8438 95.7262 19.826V18.0303C95.7262 18.0065 95.7201 17.9885 95.7085 17.9765C95.7021 17.9702 95.6938 17.9654 95.6839 17.9624L95.6746 17.9602C95.6685 17.9591 95.6618 17.9586 95.6547 17.9586H85.1031V16.8633C85.1031 16.7316 85.1508 16.618 85.247 16.5221C85.3424 16.4264 85.4591 16.3783 85.5969 16.3783H95.6611C95.6787 16.3783 95.6954 16.3708 95.7105 16.3558C95.7252 16.3411 95.7329 16.3244 95.7329 16.3066V14.511C95.7329 14.4931 95.7252 14.4767 95.7105 14.4617C95.6954 14.447 95.6787 14.4392 95.6611 14.4392Z" fill="white"/>
<path d="M98.289 14.4392H110.993C111.016 14.4392 111.036 14.4467 111.051 14.4617C111.066 14.4767 111.073 14.4931 111.073 14.511V16.3066C111.073 16.3244 111.066 16.3408 111.051 16.3558C111.036 16.3708 111.016 16.3783 110.992 16.3783H105.749V23.3451C105.749 23.3575 105.747 23.3693 105.741 23.3803C105.738 23.3851 105.735 23.3899 105.731 23.3944C105.723 23.4044 105.713 23.4111 105.699 23.4145L105.692 23.4159L105.678 23.4169H103.604C103.58 23.4169 103.562 23.4093 103.55 23.3944C103.538 23.3796 103.532 23.363 103.532 23.3451V16.3783H98.289L98.2736 16.3772L98.2602 16.3736C98.2541 16.3714 98.249 16.3686 98.2445 16.365C98.241 16.3623 98.2377 16.3593 98.2352 16.3558C98.231 16.3508 98.2275 16.3455 98.2249 16.34C98.2198 16.3295 98.2172 16.3182 98.2172 16.3066V14.511C98.2172 14.5044 98.2182 14.498 98.2198 14.4918C98.2224 14.4812 98.2275 14.4712 98.2352 14.4617C98.247 14.4467 98.265 14.4392 98.289 14.4392Z" fill="white"/>
<path d="M115.821 14.4571C115.809 14.4452 115.791 14.4392 115.767 14.4392H113.693C113.681 14.4392 113.671 14.4407 113.662 14.4438C113.653 14.4467 113.645 14.4511 113.64 14.4571C113.627 14.4692 113.622 14.487 113.622 14.511V23.3451C113.622 23.363 113.627 23.3796 113.64 23.3944C113.651 23.4093 113.669 23.4169 113.693 23.4169H115.767C115.782 23.4169 115.794 23.4142 115.804 23.4088C115.81 23.4052 115.816 23.4004 115.821 23.3944C115.833 23.3794 115.839 23.363 115.839 23.3451V14.511C115.839 14.4873 115.833 14.4692 115.821 14.4571Z" fill="white"/>
<path d="M121.215 16.4682C121.346 16.4682 121.457 16.5192 121.547 16.6209L122.571 17.8598L123.917 16.2348L123.226 15.4C122.705 14.8196 122.086 14.5291 121.367 14.5291H118.522C118.498 14.5291 118.478 14.5369 118.463 14.5516C118.448 14.5666 118.441 14.583 118.441 14.6009V16.3964C118.441 16.4143 118.448 16.431 118.463 16.4457C118.478 16.4607 118.498 16.4682 118.522 16.4682H121.215Z" fill="white"/>
<path d="M128.388 14.5291C127.664 14.5291 127.041 14.8164 126.52 15.391L123.495 19.0537L121.547 21.4057C121.451 21.5077 121.341 21.5584 121.215 21.5584H118.522C118.498 21.5584 118.479 21.566 118.468 21.5809C118.456 21.5959 118.45 21.6123 118.45 21.6302V23.4258C118.45 23.4399 118.452 23.4524 118.456 23.4633C118.459 23.471 118.463 23.478 118.468 23.4842C118.479 23.4992 118.498 23.5068 118.522 23.5068H121.358C122.083 23.5068 122.705 23.2165 123.226 22.6359L124.878 20.6429L126.53 22.6359C127.044 23.2165 127.664 23.5068 128.388 23.5068H131.225C131.238 23.5068 131.249 23.5044 131.259 23.4999C131.267 23.4962 131.273 23.491 131.279 23.4842C131.291 23.4695 131.297 23.4528 131.297 23.435V21.6394C131.297 21.6268 131.295 21.6155 131.292 21.6053C131.289 21.5963 131.284 21.5882 131.279 21.5812C131.267 21.5662 131.249 21.5587 131.225 21.5587H128.532C128.452 21.5587 128.38 21.5395 128.315 21.5011C128.277 21.4788 128.241 21.4501 128.208 21.4149L126.215 19.009L128.199 16.6209C128.289 16.5192 128.4 16.4682 128.532 16.4682H131.225C131.237 16.4682 131.248 16.4662 131.257 16.4623C131.266 16.4585 131.273 16.453 131.279 16.4457C131.291 16.431 131.297 16.4143 131.297 16.3964V14.6009C131.297 14.5769 131.291 14.5591 131.279 14.547C131.272 14.5405 131.264 14.5357 131.254 14.5328C131.246 14.5303 131.236 14.5291 131.225 14.5291H128.388Z" fill="white"/>
</svg>
