<svg width="32" height="32" viewBox="0 0 32 32" fill="none" xmlns="http://www.w3.org/2000/svg">
<path d="M16.3014 0.764648C24.7154 0.764648 31.6446 7.69382 31.6446 16.1078C31.6446 24.5837 24.7154 31.451 16.3014 31.451C7.82556 31.451 0.958252 24.5837 0.958252 16.1078C0.958252 7.69382 7.82556 0.764648 16.3014 0.764648ZM23.3543 11.2203C23.4162 11.0347 23.4162 10.8491 23.3543 10.6016C23.3543 10.4779 23.2306 10.2923 23.1687 10.2304C22.9831 10.0448 22.6738 10.0448 22.5501 10.0448C21.9932 10.0448 21.0652 10.3541 16.7964 12.1483C15.3115 12.767 12.3419 14.0043 7.88743 15.9841C7.14501 16.2934 6.77381 16.5409 6.71194 16.8502C6.65007 17.3452 7.45435 17.5308 8.38237 17.8401C9.18665 18.0876 10.2384 18.3969 10.7952 18.3969C11.2901 18.3969 11.847 18.2113 12.4656 17.7782C16.6108 14.9323 18.7761 13.5094 18.8999 13.5094C19.0236 13.5094 19.1473 13.4475 19.2092 13.5094C19.3329 13.6331 19.3329 13.7568 19.2711 13.8187C19.2092 14.1281 15.3115 17.7164 15.0641 17.9638C14.1979 18.83 13.208 19.3868 14.7547 20.3767C16.054 21.2428 16.7964 21.7996 18.1575 22.6658C19.0236 23.2226 19.7041 23.9031 20.5703 23.8413C21.0034 23.7794 21.4364 23.4082 21.622 22.2327C22.1788 19.5724 23.1687 13.6331 23.3543 11.2203Z" fill="white"/>
</svg>
